<svg width="2958" height="953" viewBox="0 0 2958 953" fill="none" xmlns="http://www.w3.org/2000/svg">
<rect width="2958" height="952.913" fill="white"/>
<path d="M635.275 456.604V178.671" stroke="#242C56" stroke-width="79.4094"/>
<path d="M377.194 456.604V178.671" stroke="#242C56" stroke-width="79.4094"/>
<path d="M896.352 455.906C873.309 455.906 852.94 450.283 835.246 439.036C817.69 427.788 803.905 412.701 793.892 393.772C784.017 374.707 779.079 353.584 779.079 330.403V162.518H840.802V330.403C840.802 342.062 842.996 352.761 847.385 362.499C851.774 372.101 858.084 379.782 866.314 385.542C874.68 391.303 884.693 394.184 896.352 394.184C908.148 394.184 918.161 391.372 926.39 385.748C934.62 379.987 940.861 372.306 945.113 362.705C949.365 352.967 951.491 342.199 951.491 330.403V162.518H1013.21V330.403C1013.21 347.823 1010.4 364.145 1004.78 379.37C999.155 394.458 991.131 407.763 980.706 419.284C970.282 430.806 957.938 439.79 943.673 446.237C929.408 452.683 913.634 455.906 896.352 455.906ZM1089.67 450.557V162.518H1156.33L1261.67 339.045V162.518H1323.39V450.557H1256.73L1151.39 274.03V450.557H1089.67ZM1405.89 450.557V162.518H1501.35C1521.24 162.518 1539.82 166.29 1557.11 173.833C1574.53 181.24 1589.82 191.596 1602.99 204.901C1616.29 218.068 1626.65 233.362 1634.05 250.781C1641.6 268.064 1645.37 286.649 1645.37 306.537C1645.37 326.426 1641.6 345.08 1634.05 362.499C1626.65 379.782 1616.29 395.075 1602.99 408.38C1589.82 421.547 1574.53 431.903 1557.11 439.447C1539.82 446.854 1521.24 450.557 1501.35 450.557H1405.89ZM1467.61 388.834H1501.35C1512.46 388.834 1522.95 386.708 1532.83 382.456C1542.7 378.204 1551.48 372.306 1559.16 364.762C1566.85 357.219 1572.81 348.509 1577.06 338.633C1581.45 328.62 1583.65 317.922 1583.65 306.537C1583.65 295.153 1581.45 284.523 1577.06 274.647C1572.81 264.772 1566.85 256.062 1559.16 248.518C1551.62 240.837 1542.91 234.87 1533.04 230.618C1523.16 226.366 1512.6 224.24 1501.35 224.24H1467.61V388.834ZM1787.05 162.518H1856.59L1961.1 450.557H1895.68L1879.22 405.294H1764.41L1747.96 450.557H1682.53L1787.05 162.518ZM1787.05 343.571H1856.59L1821.61 248.106L1787.05 343.571ZM2026.67 450.557V162.518H2122.13C2142.02 162.518 2160.6 166.29 2177.89 173.833C2195.31 181.24 2210.6 191.596 2223.77 204.901C2237.07 218.068 2247.43 233.362 2254.83 250.781C2262.38 268.064 2266.15 286.649 2266.15 306.537C2266.15 326.426 2262.38 345.08 2254.83 362.499C2247.43 379.782 2237.07 395.075 2223.77 408.38C2210.6 421.547 2195.31 431.903 2177.89 439.447C2160.6 446.854 2142.02 450.557 2122.13 450.557H2026.67ZM2088.39 388.834H2122.13C2133.24 388.834 2143.73 386.708 2153.61 382.456C2163.48 378.204 2172.26 372.306 2179.94 364.762C2187.63 357.219 2193.59 348.509 2197.84 338.633C2202.23 328.62 2204.43 317.922 2204.43 306.537C2204.43 295.153 2202.23 284.523 2197.84 274.647C2193.59 264.772 2187.63 256.062 2179.94 248.518C2172.4 240.837 2163.69 234.87 2153.81 230.618C2143.94 226.366 2133.38 224.24 2122.13 224.24H2088.39V388.834ZM2407.83 162.518H2477.37L2581.88 450.557H2516.46L2500 405.294H2385.19L2368.74 450.557H2303.31L2407.83 162.518ZM2407.83 343.571H2477.37L2442.39 248.106L2407.83 343.571Z" fill="#242C56"/>
<path d="M337.49 119.114L476.457 209.553L674.98 119.114V210.615L476.457 297.785L337.49 210.615V119.114Z" fill="#34A853"/>
<path d="M420.472 560.563C438.736 560.563 452.038 564.533 460.375 572.474C468.846 580.283 473.081 591.069 473.081 604.834C473.081 611.054 472.155 617.01 470.302 622.701C468.449 628.259 465.339 633.289 460.971 637.788C456.736 642.156 451.111 645.597 444.097 648.112C437.082 650.626 428.413 651.884 418.09 651.884H405.186V702.309H375.209V560.563H420.472ZM418.884 585.18H405.186V627.267H415.112C420.803 627.267 425.7 626.539 429.803 625.083C433.906 623.627 437.082 621.311 439.332 618.135C441.582 614.958 442.707 610.855 442.707 605.826C442.707 598.812 440.788 593.65 436.95 590.341C433.112 586.9 427.09 585.18 418.884 585.18ZM789.315 631.237C789.315 642.222 787.925 652.214 785.146 661.214C782.499 670.082 778.396 677.758 772.837 684.243C767.411 690.728 760.397 695.691 751.794 699.132C743.324 702.573 733.331 704.294 721.817 704.294C710.303 704.294 700.244 702.573 691.641 699.132C683.171 695.559 676.157 690.596 670.598 684.243C665.172 677.758 661.069 670.015 658.289 661.016C655.642 652.016 654.319 642.024 654.319 631.039C654.319 616.348 656.701 603.576 661.466 592.724C666.363 581.871 673.774 573.467 683.7 567.511C693.759 561.423 706.531 558.379 722.015 558.379C737.368 558.379 750.007 561.423 759.933 567.511C769.86 573.467 777.205 581.937 781.97 592.922C786.866 603.775 789.315 616.546 789.315 631.237ZM685.884 631.237C685.884 641.163 687.142 649.7 689.656 656.847C692.171 663.994 696.075 669.486 701.369 673.324C706.663 677.162 713.479 679.081 721.817 679.081C730.42 679.081 737.302 677.162 742.463 673.324C747.757 669.486 751.595 663.994 753.978 656.847C756.492 649.7 757.75 641.163 757.75 631.237C757.75 616.282 754.97 604.569 749.412 596.099C743.853 587.628 734.721 583.393 722.015 583.393C713.545 583.393 706.663 585.312 701.369 589.15C696.075 592.988 692.171 598.481 689.656 605.628C687.142 612.774 685.884 621.311 685.884 631.237ZM979.48 702.309V560.563H1009.46V677.493H1067.03V702.309H979.48ZM1290.6 618.929L1320.18 560.563H1352.54L1305.49 647.119V702.309H1275.71V648.112L1228.66 560.563H1261.22L1290.6 618.929ZM1591.17 702.309L1557.02 591.135H1556.23C1556.36 593.782 1556.56 597.753 1556.82 603.047C1557.09 608.341 1557.35 614.032 1557.62 620.12C1557.88 626.076 1558.01 631.502 1558.01 636.399V702.309H1531.21V560.563H1572.11L1605.66 668.957H1606.25L1641.79 560.563H1682.69V702.309H1654.69V635.208C1654.69 630.708 1654.76 625.546 1654.89 619.723C1655.16 613.899 1655.36 608.407 1655.49 603.245C1655.75 597.951 1655.95 593.981 1656.08 591.334H1655.29L1618.76 702.309H1591.17ZM1960.89 702.309H1879.3V560.563H1960.89V585.18H1909.27V616.348H1957.32V640.965H1909.27V677.493H1960.89V702.309ZM2192.48 560.563C2205.32 560.563 2215.91 562.151 2224.24 565.327C2232.58 568.371 2238.8 573.07 2242.91 579.423C2247.01 585.643 2249.06 593.518 2249.06 603.047C2249.06 609.532 2247.8 615.223 2245.29 620.12C2242.91 624.884 2239.66 628.987 2235.56 632.428C2231.59 635.737 2227.29 638.45 2222.66 640.568L2264.35 702.309H2230.99L2197.25 647.913H2181.16V702.309H2151.19V560.563H2192.48ZM2190.3 585.18H2181.16V623.495H2190.89C2197.51 623.495 2202.87 622.767 2206.97 621.311C2211.08 619.855 2214.05 617.671 2215.91 614.76C2217.76 611.716 2218.69 608.076 2218.69 603.841C2218.69 599.341 2217.63 595.768 2215.51 593.121C2213.52 590.341 2210.41 588.356 2206.18 587.165C2202.08 585.841 2196.78 585.18 2190.3 585.18ZM2526.63 663.001C2526.63 671.339 2524.58 678.618 2520.47 684.839C2516.37 691.059 2510.41 695.89 2502.61 699.331C2494.93 702.639 2485.53 704.294 2474.41 704.294C2469.52 704.294 2464.69 703.963 2459.92 703.301C2455.29 702.639 2450.79 701.713 2446.42 700.522C2442.19 699.198 2438.15 697.61 2434.31 695.757V667.766C2441.06 670.677 2448.01 673.39 2455.16 675.905C2462.44 678.287 2469.65 679.478 2476.8 679.478C2481.69 679.478 2485.6 678.817 2488.51 677.493C2491.55 676.17 2493.74 674.383 2495.06 672.133C2496.52 669.883 2497.24 667.302 2497.24 664.391C2497.24 660.817 2495.99 657.773 2493.47 655.259C2491.09 652.744 2487.85 650.428 2483.75 648.31C2479.64 646.06 2474.94 643.678 2469.65 641.163C2466.34 639.575 2462.77 637.722 2458.93 635.605C2455.09 633.355 2451.39 630.642 2447.81 627.465C2444.37 624.157 2441.53 620.186 2439.28 615.554C2437.03 610.922 2435.9 605.363 2435.9 598.878C2435.9 590.408 2437.82 583.194 2441.66 577.239C2445.63 571.151 2451.19 566.519 2458.33 563.342C2465.61 560.166 2474.15 558.578 2483.94 558.578C2491.36 558.578 2498.37 559.438 2504.99 561.158C2511.74 562.879 2518.75 565.327 2526.03 568.504L2516.3 591.93C2509.82 589.283 2503.99 587.231 2498.83 585.775C2493.67 584.319 2488.38 583.592 2482.95 583.592C2479.25 583.592 2476.07 584.187 2473.42 585.378C2470.78 586.569 2468.72 588.224 2467.27 590.341C2465.94 592.459 2465.28 594.974 2465.28 597.885C2465.28 601.194 2466.28 604.039 2468.26 606.422C2470.25 608.672 2473.22 610.855 2477.19 612.973C2481.16 615.091 2486.13 617.605 2492.08 620.517C2499.36 623.958 2505.52 627.531 2510.55 631.237C2515.71 634.943 2519.68 639.31 2522.46 644.34C2525.24 649.369 2526.63 655.589 2526.63 663.001Z" fill="#666666"/>
</svg>
