<svg width="168" height="168" viewBox="0 0 168 168" fill="none" xmlns="http://www.w3.org/2000/svg">
<circle cx="84" cy="84" r="84" fill="#E5F2FF"/>
<path d="M96.9994 67H90.1283L91.9877 52.121C92.0385 51.6913 91.808 51.2694 91.4096 51.0898C91.0112 50.9101 90.5385 51.0117 90.2494 51.3281L72.2494 71.3281C71.9877 71.6171 71.9213 72.039 72.0775 72.4062C72.2494 72.7695 72.6088 72.9999 72.9994 72.9999H79.8705L78.0111 87.8789C77.9603 88.3086 78.1908 88.7305 78.5892 88.9101C78.7181 88.9687 78.8588 89 78.9994 89C79.2806 89 79.5502 88.8789 79.7377 88.6719L97.7377 68.6719C97.9994 68.3828 98.0658 67.9609 97.9096 67.5938C97.7494 67.2305 97.3901 67 96.9994 67ZM80.3904 84.961L81.992 72.121C82.0311 71.8397 81.9412 71.5507 81.7538 71.3319C81.5584 71.121 81.2889 70.9999 80.9998 70.9999H75.2498L89.6208 55.0389L88.0192 67.8789C87.9802 68.1602 88.07 68.4492 88.2575 68.668C88.4411 68.8789 88.7107 69 88.9997 69H94.7497L80.3904 84.961ZM111.999 70C111.999 55.109 99.8904 43 84.9994 43C70.1084 43 57.9994 55.109 57.9994 70C57.9994 84.891 70.1084 97 84.9994 97C99.8904 97 111.999 84.891 111.999 70ZM84.9994 95C71.2104 95 59.9994 83.789 59.9994 70C59.9994 56.211 71.2104 45 84.9994 45C98.7884 45 109.999 56.211 109.999 70C109.999 83.789 98.7884 95 84.9994 95ZM125.999 80V101.988C125.999 104.84 124.89 107.519 122.871 109.539L113.101 119.308C112.39 120.019 111.999 120.957 111.999 121.957V124C111.999 124.55 111.55 125 110.999 125C110.449 125 109.999 124.55 109.999 124V121.968C109.999 120.429 110.601 118.988 111.691 117.898L121.46 108.129C123.101 106.488 123.999 104.308 123.999 101.988V80.0001C123.999 78.3517 122.648 77.0001 120.999 77.0001C119.351 77.0001 117.999 78.3517 117.999 80.0001V98.0001C117.999 98.0704 117.968 98.1407 117.96 98.211C117.902 99.5821 117.371 100.93 116.339 101.981L107.718 110.711C107.328 111.102 106.699 111.109 106.308 110.723C105.917 110.332 105.91 109.703 106.296 109.313L114.917 100.582C116.359 99.1329 116.347 96.7735 114.898 95.3204L114.519 94.9414C113.82 94.2422 112.878 93.8516 111.878 93.8516H111.867C110.867 93.8516 109.925 94.2501 109.226 94.961L94.499 109.879C92.8896 111.508 91.999 113.68 91.999 115.981V124C91.999 124.551 91.5498 125 90.999 125C90.4482 125 89.999 124.551 89.999 124V115.969C89.999 113.141 91.0888 110.481 93.0771 108.469L107.8 93.5509C108.878 92.4611 110.32 91.8517 111.859 91.84H111.878C113.409 91.84 114.847 92.4416 115.929 93.5197L115.999 93.5901V80.0001C115.999 77.2384 118.238 75.0001 120.999 75.0001C123.761 75.0001 125.999 77.2383 125.999 80ZM76.9214 108.469C78.9019 110.481 79.9995 113.141 79.9995 115.969V124C79.9995 124.551 79.5503 125 78.9995 125C78.4488 125 77.9995 124.551 77.9995 124V115.969C77.9995 113.668 77.1089 111.508 75.4995 109.867L60.7695 94.9494C60.0703 94.2385 59.1289 93.84 58.1289 93.84H58.1172C57.1172 93.84 56.1875 94.2306 55.4766 94.9298L55.0977 95.3087C53.6485 96.7579 53.6485 99.1095 55.0782 100.57L63.6993 109.301C64.0899 109.692 64.0782 110.332 63.6876 110.711C63.2969 111.102 62.6564 111.09 62.2774 110.699L53.6563 101.969C52.6251 100.918 52.0977 99.5705 52.0352 98.1994C52.0313 98.1408 52 98.0705 52 98.0002V80.0002C52 78.3518 50.6484 77.0002 49 77.0002C47.3516 77.0002 46 78.3518 46 80.0002V101.988C46 104.308 46.8984 106.488 48.5391 108.129L58.3086 117.898C59.3984 118.988 60 120.429 60 121.969V124C60 124.551 59.5508 125 59 125C58.4492 125 58 124.551 58 124V121.969C58 120.969 57.6094 120.027 56.8984 119.32L47.1289 109.551C45.1094 107.519 44 104.84 44 101.988V80.0002C44 77.2385 46.2383 75.0002 49 75.0002C51.7617 75.0002 54 77.2385 54 80.0002V93.5902L54.0703 93.5199C55.1484 92.4418 56.5898 91.8402 58.1211 91.8402H58.1406C59.6797 91.8402 61.1211 92.4495 62.1992 93.5511L76.9214 108.469Z" fill="#242C56"/>
</svg>
