<svg width="110" height="110" viewBox="0 0 110 110" fill="none" xmlns="http://www.w3.org/2000/svg">
<path d="M76.8985 56.875C73.543 56.875 70.8165 59.6016 70.8165 62.957C70.8165 66.3124 73.547 69.0429 76.8985 69.0429C80.254 69.0429 82.9805 66.3124 82.9805 62.957C82.9805 59.6054 80.2539 56.875 76.8985 56.875Z" fill="white"/>
<path d="M94.0005 32.5H88.856C88.6372 29.4336 86.0787 27 82.9576 27H48.9186V24.582H52.4186C52.9693 24.582 53.4186 24.1367 53.4186 23.582C53.4186 23.0273 52.9693 22.582 52.4186 22.582H52.2115L52.2076 17H52.4146C52.9654 17 53.4146 16.5547 53.4146 16C53.4146 15.4453 52.9654 15 52.4146 15H43.2076C42.6569 15 42.2076 15.4453 42.2076 16C42.2076 16.5547 42.6569 17 43.2076 17H43.6256V22.582H43.2076C42.6569 22.582 42.2076 23.0273 42.2076 23.582C42.2076 24.1367 42.6569 24.582 43.2076 24.582H46.9146V27H28.3756V21.4141C28.3756 20.8594 27.9264 20.4141 27.3756 20.4141C26.8249 20.4141 26.3756 20.8594 26.3756 21.4141V27.0352C21.6256 27.418 17.8756 31.3985 17.8756 36.2461V48.5001C17.8756 51.0274 19.9304 53.0821 22.4577 53.0821H22.4889V55.8751C22.4889 56.4298 22.9381 56.8751 23.4889 56.8751H26.3756V64.8321C26.3756 65.3868 26.8248 65.8321 27.3756 65.8321C27.9264 65.8321 28.3756 65.3868 28.3756 64.8321V56.8751H31.2623C31.8131 56.8751 32.2623 56.4298 32.2623 55.8751V53.0821H34.9771C36.1998 53.0821 37.3521 52.6055 38.2154 51.7383L42.2506 47.7031C43.4303 46.5234 45.0006 45.875 46.6686 45.875H60.6176C62.3207 45.875 63.7074 47.2617 63.7074 48.9688V74.5428L24.3984 74.5389C20.2539 74.5389 16.8828 77.91 16.8828 82.0545V86.0233C15.7773 86.5272 15 87.6405 15 88.9374V91.8007C15 93.5624 16.4375 94.9999 18.2031 94.9999H91.8011C93.5628 94.9999 95.0003 93.5624 95.0003 91.7968V88.9335C95.0003 87.6405 94.223 86.5273 93.1175 86.0233V75.5393C93.1175 75.4768 93.1097 75.4143 93.1019 75.3518C93.0589 75.1291 88.9066 53.2228 88.8792 47.3868L94.0003 47.3907C94.5511 47.3907 95.0003 46.9454 95.0003 46.3907V33.4997C95.0003 32.945 94.5512 32.5 94.0005 32.5ZM76.8985 39.7422C78.4571 39.7422 79.7227 41.0078 79.7227 42.5664C79.7227 44.1211 78.4571 45.3906 76.8985 45.3906C75.3399 45.3906 74.0743 44.125 74.0743 42.5664C74.0743 41.0078 75.3399 39.7422 76.8985 39.7422ZM76.8985 71.0432C72.4415 71.0432 68.8165 67.4182 68.8165 62.9573C68.8165 58.5003 72.4415 54.8753 76.8985 54.8753C81.3555 54.8753 84.9805 58.5003 84.9805 62.9573C84.9805 67.4182 81.3555 71.0432 76.8985 71.0432Z" fill="white"/>
</svg>
