<svg width="110" height="110" viewBox="0 0 110 110" fill="none" xmlns="http://www.w3.org/2000/svg">
<path fill-rule="evenodd" clip-rule="evenodd" d="M84.5885 26.1902L75.2763 33.4777H69.7167L82.8686 23.1847V22.0343C80.2343 21.2723 78.4113 18.8523 78.4113 16.1C78.4113 12.6889 81.1773 9.92285 84.5885 9.92285C87.9996 9.92285 90.7657 12.6889 90.7657 16.1C90.7657 17.0499 89.9957 17.8199 89.0458 17.8199C88.0959 17.8199 87.3259 17.0499 87.3259 16.1C87.3259 14.5875 86.101 13.3626 84.5885 13.3626C83.076 13.3626 81.8511 14.5875 81.8511 16.1C81.8511 17.6125 83.076 18.8374 84.5885 18.8374C85.5384 18.8374 86.3084 19.6074 86.3084 20.5573V23.1847L99.4602 33.4777H93.9007L84.5885 26.1902ZM55.9449 54.1005L64.0746 62.2301C64.4665 62.622 65.0852 62.653 65.5138 62.3023L74.5601 54.914C75.0792 54.49 75.0884 53.7006 74.5785 53.2651L50.9732 33.079C43.1231 36.1029 35.5479 36.1029 27.699 33.079L4.09368 53.2651C3.58493 53.7006 3.59409 54.49 4.11201 54.914L13.1584 62.3023C13.5869 62.653 14.2057 62.622 14.5975 62.2301L22.7272 54.1005V88.2532C22.7272 88.8444 23.2096 89.328 23.802 89.328H54.8701C55.4625 89.328 55.9449 88.8456 55.9449 88.2532V54.1005ZM39.3361 26.1902L33.0053 31.1448C31.6888 30.8297 30.3653 30.4172 29.0282 29.9062L37.6162 23.1859V22.0355C34.9819 21.2735 33.1589 18.8535 33.1589 16.1012C33.1589 12.69 35.9249 9.924 39.3361 9.924C42.7472 9.924 45.5133 12.69 45.5133 16.1012C45.5133 17.0511 44.7433 17.8211 43.7934 17.8211C42.8435 17.8211 42.0735 17.0511 42.0735 16.1012C42.0735 14.5887 40.8474 13.3638 39.3361 13.3638C37.8247 13.3638 36.5987 14.5898 36.5987 16.1012C36.5987 17.6137 37.8247 18.8386 39.3361 18.8386C40.286 18.8386 41.056 19.6086 41.056 20.5585V23.1859L49.644 29.9062C48.3079 30.4161 46.9834 30.8297 45.6668 31.1448L39.3361 26.1902ZM106.283 100.075H93.5707L85.8248 57.2824C85.5132 55.9922 83.6661 55.9922 83.3533 57.2824L75.6074 100.075H62.8956L65.7132 65.8968C66.4178 65.757 67.0985 65.4488 67.6886 64.9664L76.7349 57.5781C78.9028 55.8078 78.9407 52.4711 76.8129 50.6526L67.6187 42.7899L68.1034 36.9175H101.075L106.283 100.075Z" fill="white"/>
</svg>
