<svg width="123" height="123" viewBox="0 0 123 123" fill="none" xmlns="http://www.w3.org/2000/svg">
<path fill-rule="evenodd" clip-rule="evenodd" d="M44.4166 12C49.9506 12 54.4381 16.4861 54.4381 22.0215C54.4381 27.5555 49.952 32.043 44.4166 32.043C38.8826 32.043 34.3951 27.5569 34.3951 22.0215C34.3951 16.4875 38.8826 12 44.4166 12ZM17.2119 73.4688L26.4748 108.039C30.5817 105.555 34.8659 104.693 40.1106 105.895L58.7947 110.178C63.0489 111.153 67.0479 110.777 70.8286 108.594L117.551 81.6197C121.721 79.2129 123.161 73.8331 120.755 69.6622C118.348 65.4926 112.967 64.0504 108.798 66.4572L80.5118 82.789C80.5309 83.856 80.4013 84.9434 80.1079 86.0213C78.427 92.1952 71.9966 95.8777 65.8213 94.1967L48.398 89.4541C47.3556 89.1717 46.7388 88.0965 47.0226 87.0541C47.3051 86.0117 48.3802 85.395 49.4226 85.6788L66.846 90.4215C70.9378 91.5348 75.2043 89.0693 76.3313 84.998C77.7284 79.8665 74.6626 74.5085 69.5311 73.1114L36.9125 64.2332C32.5832 63.6602 28.6524 64.708 25.1855 67.3645L17.2119 73.4688ZM12.633 71.5L23.8852 113.493C24.1594 114.518 23.5468 115.58 22.5222 115.855L14.7615 117.935C13.7368 118.209 12.6753 117.596 12.4011 116.571L1.14751 74.5781C0.873265 73.5534 1.48588 72.4919 2.51054 72.2163L10.2712 70.137C11.2959 69.8627 12.3588 70.4753 12.633 71.5ZM91.7162 57.897C90.9017 48.4376 82.9036 40.9484 73.2423 40.9484C63.581 40.9484 55.5842 48.4376 54.7683 57.897C54.6946 58.7593 55.3659 59.4906 56.231 59.4906H90.2536C91.12 59.4906 91.7912 58.7593 91.7162 57.897ZM73.2423 18.4604C78.7763 18.4604 83.2638 22.9466 83.2638 28.4819C83.2638 34.0159 78.7776 38.5034 73.2423 38.5034C67.7083 38.5034 63.2208 34.0173 63.2208 28.4819C63.2221 22.9479 67.7083 18.4604 73.2423 18.4604ZM120.543 51.4379C120.617 52.3002 119.946 53.0315 119.081 53.0315H94.7465C93.4094 48.6013 90.742 44.7592 87.2273 41.9512C90.6165 37.4296 96.0168 34.4894 102.069 34.4894C111.731 34.4894 119.727 41.9785 120.543 51.4379ZM59.2586 41.9512C55.7425 44.7592 53.0751 48.6013 51.7394 53.0315H27.4053C26.5403 53.0315 25.869 52.3002 25.9427 51.4379C26.7572 41.9785 34.7553 34.4894 44.4166 34.4894C50.4705 34.4894 55.8694 37.4283 59.2586 41.9512ZM102.069 12C107.603 12 112.091 16.4861 112.091 22.0215C112.091 27.5555 107.605 32.043 102.069 32.043C96.5353 32.043 92.0478 27.5569 92.0478 22.0215C92.0478 16.4875 96.5339 12 102.069 12Z" fill="#34A853"/>
</svg>
