<svg width="110" height="110" viewBox="0 0 110 110" fill="none" xmlns="http://www.w3.org/2000/svg">
<path d="M85 37L86 48C86 48 80.7813 42.9687 80.4375 42.9687C79.75 42.9687 78.7188 43.3125 78.375 44L74 53V42L80.4375 38.8437L85 37Z" fill="white"/>
<path d="M96.5 29L85 34L44 17L54.5 13.0002C55.1875 12.6565 55.3125 12.6564 56 13.0001L96.5 29Z" fill="white"/>
<path d="M81 35.5L71.5 39.5L31 22L39.5 18.5L81 35.5Z" fill="white"/>
<path d="M70 41L55 47L13 29L27 23.5L70 41Z" fill="white"/>
<path d="M99 31.2812V79.75C99 80.7812 98.3125 81.4687 97.625 81.8125L56 99V48.8125L70.8125 43.3125H71.1563V52.5938C71.1563 53.625 71.8438 54.6562 72.875 55.3438C73.2188 55.3438 73.5625 55.3438 73.9063 55.3438C74.5938 55.3438 75.625 55 75.9688 54.3125L81.125 48.4688C81.125 48.4688 81.125 48.4688 81.4688 48.4688C82.1563 48.8125 85.25 49.5 85.25 49.5C85.9375 49.5 86.2812 49.1562 86.9688 48.8125C87.6562 48.4687 88 47.4375 88 46.75V36.0937L99 31.2812Z" fill="white"/>
<path d="M11 31.2812V79.75C11 80.7812 11.6875 81.4687 12.375 82.1562L53 99V49L11 31.2812ZM14.7813 68.0625C15.125 67.375 15.8125 67.0312 16.5 67.375L27.8438 72.1875C28.5313 72.5312 28.875 73.2187 28.5313 73.9062C28.1875 74.5937 27.8438 74.5938 27.1562 74.5938C26.8125 74.5938 26.8125 74.5938 26.4688 74.5938L15.125 69.7812C14.7812 69.7812 14.4375 68.75 14.7813 68.0625ZM33 83.875C32.6563 84.5625 32.3125 84.5625 31.625 84.5625C31.2812 84.5625 31.2812 84.5625 30.9375 84.5625L15.4688 78.0312C14.7812 77.6875 14.4375 77 14.7813 76.3125C15.125 75.625 15.8125 75.2812 16.5 75.625L31.9688 82.1562C33 82.5 33.3438 83.1875 33 83.875Z" fill="white"/>
</svg>
