<svg width="123" height="123" viewBox="0 0 123 123" fill="none" xmlns="http://www.w3.org/2000/svg">
<path d="M57.1955 14.287C61.7085 21.8489 66.1996 29.4236 70.7363 36.9727C68.1499 38.424 65.6 39.9393 63.0172 41.398C71.8641 42.4727 80.7238 43.4581 89.5634 44.6076C93.1752 36.4444 96.831 28.2976 100.441 20.1343C97.7668 21.677 95.0543 23.1631 92.4368 24.7954C89.9893 20.9843 87.8342 16.9868 85.3483 13.1995C84.0381 11.2763 82.3397 9.64887 80.3623 8.42202C78.3849 7.19516 76.1724 6.3961 73.8675 6.07631C71.61 5.93192 69.3453 6.04164 67.0861 6.01599C59.6869 6.0891 52.2803 5.89169 44.8848 6.12385C45.7951 6.44189 46.7693 6.50769 47.6814 6.81843C51.6648 8.05035 55.053 10.71 57.1955 14.287Z" fill="#34A853"/>
<path d="M45.3438 9.3615C43.6897 9.35195 42.0575 9.73978 40.5844 10.4924C39.1114 11.245 37.8406 12.3403 36.879 13.6862C35.1894 16.0212 33.6831 18.4834 32.3733 21.0507C29.6863 25.9696 26.9987 30.8878 24.3105 35.8053C31.803 39.5286 39.2461 43.3525 46.7147 47.1234C50.9718 39.4537 55.1448 31.7346 59.4751 24.1088C57.8593 21.2225 56.2251 18.3473 54.5161 15.5159C53.5791 13.8409 52.2602 12.4105 50.6664 11.3411C49.0727 10.2717 47.2491 9.59347 45.3438 9.3615Z" fill="#34A853"/>
<path d="M96.5818 80.2463C99.9725 80.2408 103.376 80.376 106.761 80.1512C109.305 79.8766 111.694 78.7966 113.58 77.0687C115.467 75.3408 116.752 73.0553 117.248 70.5457C117.584 66.561 115.252 63.0771 113.331 59.7942C109.786 53.9359 106.332 48.0227 102.784 42.1699C95.5711 46.3813 88.3156 50.5227 81.0176 54.5939C86.2032 63.1465 91.3913 71.6973 96.5818 80.2463Z" fill="#34A853"/>
<path d="M6.97332 74.0033C8.04991 75.8665 9.58853 77.4207 11.4407 78.516C13.2929 79.6114 15.3962 80.2108 17.5475 80.2566C20.7006 80.2748 23.8518 80.2675 27.0031 80.2639C30.094 74.656 33.205 69.0572 36.3892 63.5023C39.2535 64.992 42.1781 66.3611 45.0423 67.8508C41.0868 60.3675 37.23 52.8312 33.2672 45.3516C24.3435 46.7627 15.4053 48.0788 6.48892 49.5447C9.00406 50.8791 11.5704 52.1257 14.1002 53.4344C11.8665 57.3716 9.68954 61.3417 7.56921 65.3447C6.78478 66.6352 6.32128 68.0949 6.2176 69.6015C6.11391 71.1081 6.37307 72.6176 6.97332 74.0033Z" fill="#34A853"/>
<path d="M104.737 83.2026C95.6265 83.2355 86.5158 83.2367 77.4045 83.2063C77.4155 79.9582 77.4246 76.71 77.4045 73.4619C72.0909 81.3035 66.8998 89.2291 61.6465 97.1109C66.8852 103.715 72.1531 110.299 77.3881 116.907C77.4137 113.964 77.4082 111.023 77.3899 108.08C82.3636 108.053 87.3372 108.115 92.3108 108.047C95.0663 107.891 97.7371 107.039 100.073 105.569C102.41 104.1 104.335 102.062 105.669 99.6462C109.345 93.011 112.904 86.3082 116.596 79.6804C117.351 78.3869 118.026 77.0489 118.619 75.6737C117.079 77.95 115.013 79.8224 112.597 81.1327C110.181 82.4431 107.485 83.153 104.737 83.2026Z" fill="#34A853"/>
<path d="M17.7352 83.1982C15.0912 83.0709 12.5118 82.3378 10.196 81.0555C7.88023 79.7733 5.89001 77.9761 4.37891 75.8027C8.7329 83.7612 13.4927 91.5041 17.96 99.4041C19.4027 101.972 21.489 104.121 24.0138 105.638C26.5386 107.156 29.415 107.99 32.3599 108.059C40.5177 108.096 48.6755 108.055 56.8333 108.077C56.8187 99.7934 56.8387 91.5077 56.815 83.222C43.7878 83.2476 30.7611 83.2396 17.7352 83.1982Z" fill="#34A853"/>
</svg>
