<svg width="123" height="123" viewBox="0 0 123 123" fill="none" xmlns="http://www.w3.org/2000/svg">
<path d="M74.5383 105.165V108.609C74.5383 111.315 72.5703 113.529 69.9873 113.898L69.1263 116.973C68.6343 118.572 67.1583 119.802 65.4363 119.802H57.1953C55.4733 119.802 53.8743 118.572 53.5053 116.973L52.6443 113.898C50.0613 113.529 48.0933 111.315 48.0933 108.609V105.165C48.0933 103.443 49.4463 101.844 51.4143 101.844H71.3403C73.1853 101.967 74.5383 103.443 74.5383 105.165ZM58.3023 6.39624V17.7122C58.3023 19.4342 59.6553 20.9102 61.5003 20.9102C63.2223 20.9102 64.6983 19.5572 64.6983 17.7122V6.39624C64.6983 4.67424 63.3453 3.19824 61.5003 3.19824C59.7783 3.19824 58.3023 4.67424 58.3023 6.39624ZM23.6163 58.7942C23.6163 57.0722 22.2633 55.5962 20.4183 55.5962H9.22534C7.50334 55.5962 6.02734 56.9492 6.02734 58.7942C6.02734 60.5162 7.38034 61.9922 9.22534 61.9922H20.5413C22.1403 61.8692 23.6163 60.5162 23.6163 58.7942ZM113.775 55.5962H102.459C100.737 55.5962 99.2613 56.9492 99.2613 58.7942C99.2613 60.5162 100.614 61.9922 102.459 61.9922H113.775C115.497 61.9922 116.973 60.6392 116.973 58.7942C117.096 56.9492 115.743 55.5962 113.775 55.5962ZM30.1353 85.4852L22.1403 93.4802C20.7873 94.8332 20.7873 96.8012 22.1403 98.0312C22.7553 98.6462 23.4933 99.0152 24.3543 99.0152C25.2153 99.0152 25.9533 98.6462 26.5683 98.0312L34.5633 90.0362C35.9163 88.6832 35.9163 86.7152 34.5633 85.4852C33.4563 84.2552 31.4883 84.2552 30.1353 85.4852ZM96.3093 19.4342L88.3143 27.4292C86.9613 28.7822 86.9613 30.7502 88.3143 31.9802C89.0523 32.5952 89.7903 32.9642 90.6513 32.9642C91.5123 32.9642 92.2503 32.5952 92.8653 31.9802L100.86 23.9852C102.213 22.6322 102.213 20.6642 100.86 19.4342C99.5073 18.2042 97.5393 18.0812 96.3093 19.4342ZM26.5683 19.4342C25.2153 18.0812 23.2473 18.0812 22.0173 19.4342C20.7873 20.7872 20.6643 22.7552 22.0173 23.9852L30.1353 31.9802C30.7503 32.5952 31.4883 32.9642 32.3493 32.9642C33.2103 32.9642 33.9483 32.5952 34.5633 31.9802C35.9163 30.6272 35.9163 28.6592 34.5633 27.4292L26.5683 19.4342ZM92.8653 85.4852C91.5123 84.1322 89.5443 84.1322 88.3143 85.4852C86.9613 86.8382 86.9613 88.8062 88.3143 90.0362L96.3093 98.0312C96.9243 98.6462 97.6623 99.0152 98.5233 99.0152C99.3843 99.0152 100.122 98.6462 100.737 98.0312C102.09 96.6782 102.09 94.7102 100.737 93.4802L92.8653 85.4852ZM91.2663 59.0402C91.2663 66.6662 88.1913 74.2923 82.9023 79.7042C79.8273 82.9023 77.8593 86.8382 77.2443 91.1432C76.6293 94.8332 73.4313 97.6622 69.6183 97.6622H53.1363C49.3233 97.6622 46.1253 94.9562 45.5103 91.1432C44.8953 86.8382 42.8043 82.7793 39.8523 79.7042C34.5633 74.1693 31.6113 67.0352 31.4883 59.4092C31.3653 42.9272 44.6493 29.3972 61.0083 29.2742H61.2543C77.7363 29.3972 91.2663 42.6812 91.2663 59.0402ZM84.6243 59.0402C84.6243 46.2482 74.1693 35.7932 61.2543 35.7932H61.1313C48.3393 36.0392 38.0073 46.4942 38.1303 59.4092C38.2533 65.3132 40.5903 70.8482 44.6493 75.2762C48.5853 79.3352 51.1683 84.6242 52.0293 90.2822C52.1523 90.8972 52.6443 91.2662 53.1363 91.2662H58.3023H64.4523H69.6183C70.2333 91.2662 70.7253 90.7742 70.7253 90.2822C71.5863 84.6242 74.1693 79.4582 78.2283 75.2762C82.2873 70.9712 84.6243 65.0672 84.6243 59.0402ZM79.2123 59.1632C79.2123 69.0032 71.2173 76.9982 61.3773 76.9982C51.5373 76.9982 43.5423 69.0032 43.5423 59.1632C43.5423 49.3232 51.5373 41.3282 61.3773 41.3282C71.2173 41.3282 79.2123 49.3232 79.2123 59.1632ZM70.4793 55.2272L67.0353 51.7832L59.0403 59.6552L55.7193 56.3342L52.2753 59.7782L55.5963 63.0992L59.0403 66.5432L62.4843 63.0992L70.4793 55.2272Z" fill="#34A853"/>
</svg>
