<svg width="110" height="110" viewBox="0 0 110 110" fill="none" xmlns="http://www.w3.org/2000/svg">
<path d="M75.3115 42.7338C75.3115 31.5308 66.2021 22.4218 54.9995 22.4218C43.7969 22.4218 34.6875 31.5312 34.6875 42.7338C34.6875 53.9364 43.7969 63.0458 54.9995 63.0458C66.2021 63.0458 75.3115 53.9364 75.3115 42.7338ZM54.9995 59.9218C45.5151 59.9218 37.8115 52.2187 37.8115 42.7338C37.8115 33.2489 45.5146 25.5458 54.9995 25.5458C64.4844 25.5458 72.1875 33.2489 72.1875 42.7338C72.1875 52.2187 64.4844 59.9218 54.9995 59.9218Z" fill="white"/>
<path d="M67.422 38.9527C67.2345 38.3902 66.7502 37.9683 66.1564 37.8902L59.4064 36.9058L56.3908 30.7964C55.8596 29.7339 54.1096 29.7339 53.5939 30.7964L50.5783 36.9058L43.8283 37.8902C43.2346 37.9683 42.7502 38.3902 42.5627 38.9527C42.3752 39.5152 42.5315 40.1402 42.9534 40.5621L47.8284 45.3121L46.6722 52.0309C46.5784 52.6246 46.8128 53.2028 47.2972 53.5621C47.7815 53.9058 48.4222 53.9527 48.9378 53.6871L54.969 50.5152L61.0002 53.6871C61.2345 53.8121 61.4845 53.8589 61.7345 53.8589C62.0627 53.8589 62.3752 53.7652 62.6564 53.5621C63.1408 53.2183 63.3752 52.6246 63.2814 52.0309L62.1252 45.3121L67.0002 40.5621C67.4221 40.1402 67.5783 39.5309 67.3908 38.9527H67.422ZM59.3751 43.6558C59.0001 44.0151 58.8439 44.5308 58.922 45.0464L59.672 49.4526L55.7189 47.3745C55.4845 47.2495 55.2345 47.2026 54.9845 47.2026C54.7345 47.2026 54.4845 47.2651 54.2502 47.3745L50.2971 49.4526L51.0471 45.0464C51.1408 44.5464 50.9689 44.0152 50.5939 43.6558L47.3908 40.5308L51.8127 39.8901C52.3284 39.812 52.7659 39.4995 52.9846 39.0308L54.969 35.0152L56.9534 39.0308C57.1878 39.4995 57.6253 39.812 58.1253 39.8901L62.5472 40.5308L59.3441 43.6558H59.3751Z" fill="white"/>
<path d="M75.4376 63.7808C77.2188 63.2808 79.0782 62.6246 80.2188 61.062C81.5157 59.2808 81.3907 56.9526 81.2969 54.9058C81.2344 53.5464 81.1719 52.2652 81.4687 51.3277C81.75 50.4527 82.5312 49.4996 83.3593 48.4839C84.6874 46.8589 86.1718 45.0151 86.1718 42.7339C86.1718 40.4527 84.6718 38.6089 83.3593 36.9839C82.5312 35.9683 81.7499 35.0151 81.4687 34.1401C81.1562 33.2026 81.2344 31.9213 81.2969 30.562C81.4062 28.5151 81.5156 26.187 80.2188 24.4058C78.9063 22.6089 76.6563 21.9996 74.6563 21.4683C73.3594 21.1246 72.1251 20.7964 71.3438 20.2183C70.5781 19.6558 69.8907 18.6089 69.1719 17.4839C68.0469 15.7339 66.7657 13.7651 64.625 13.062C62.5781 12.3901 60.5156 13.187 58.5156 13.937C57.2344 14.4214 56.0156 14.8901 54.9844 14.8901C53.9532 14.8901 52.7344 14.4214 51.4532 13.937C49.4688 13.1714 47.4063 12.3901 45.3438 13.062C43.2032 13.7651 41.9219 15.7339 40.7969 17.4839C40.0781 18.5933 39.3907 19.6558 38.625 20.2183C37.8437 20.7964 36.6094 21.1246 35.3125 21.4683C33.3125 21.9996 31.0625 22.6089 29.75 24.4058C28.4531 26.187 28.5781 28.5152 28.6719 30.562C28.7344 31.9214 28.7969 33.2026 28.5 34.1401C28.2187 35.0151 27.4375 35.9682 26.6094 36.9839C25.2813 38.6089 23.7969 40.4527 23.7969 42.7339C23.7969 45.0151 25.2969 46.8589 26.6094 48.4839C27.4375 49.4995 28.2188 50.4527 28.5 51.3277C28.8125 52.2652 28.7344 53.5465 28.6719 54.9058C28.5625 56.9527 28.4531 59.2808 29.75 61.062C30.8906 62.6245 32.75 63.2964 34.5312 63.7964L25.1562 89.8434C24.9374 90.4684 25.1249 91.1559 25.6249 91.5778C26.1249 91.9997 26.8437 92.0622 27.4218 91.7184L36.2499 86.5309L39.7655 96.1715C39.9843 96.7965 40.578 97.2027 41.2343 97.2027C41.8906 97.2027 42.4843 96.7808 42.7031 96.1715L51.5781 71.4835C52.8125 71.0148 53.9843 70.5773 54.9687 70.5773C55.9531 70.5773 57.1249 71.0148 58.3593 71.4835L67.2343 96.1715C67.4531 96.7965 68.0468 97.2027 68.7031 97.2027C69.3594 97.2027 69.9531 96.7965 70.1719 96.1715L73.6875 86.5309L82.5156 91.7184C83.0781 92.0465 83.7968 91.9997 84.3125 91.5778C84.8125 91.1559 85 90.4684 84.7813 89.8434L75.4063 63.7964L75.4376 63.7808ZM41.2496 91.0308L38.5621 83.687C38.4058 83.2495 38.0621 82.9058 37.6246 82.7495C37.1871 82.5933 36.7027 82.6401 36.3121 82.8745L29.5933 86.8276L37.5621 64.6866C37.9683 64.8429 38.3433 65.0304 38.6402 65.2491C39.4058 65.8116 40.0933 66.8585 40.8121 67.9835C41.9371 69.7335 43.2183 71.7023 45.359 72.4054C45.9058 72.5773 46.4528 72.6554 46.9996 72.6554C47.2964 72.6554 47.5933 72.6242 47.8902 72.5773L41.2496 91.0463L41.2496 91.0308ZM50.359 68.5928C50.1558 68.6709 49.9683 68.7334 49.7652 68.8116C49.7496 68.8116 49.734 68.8116 49.7183 68.8272C48.4058 69.3116 47.2027 69.6866 46.3277 69.4053C45.2496 69.0459 44.3589 67.7022 43.4371 66.2647C42.5934 64.9522 41.7183 63.6085 40.484 62.7022C39.234 61.796 37.6559 61.3741 36.1402 60.9678C34.4996 60.5303 32.9527 60.1084 32.2964 59.2178C31.6558 58.3272 31.7339 56.749 31.812 55.0616C31.8902 53.4835 31.9683 51.8585 31.4839 50.3585C31.0152 48.921 30.0151 47.6866 29.0464 46.4991C27.9526 45.1553 26.937 43.9053 26.937 42.7179C26.937 41.5305 27.9682 40.2804 29.0464 38.9367C30.0152 37.7492 31.0152 36.5148 31.4839 35.0773C31.9683 33.5773 31.8902 31.9523 31.812 30.3742C31.7339 28.6867 31.6402 27.1086 32.2964 26.218C32.9527 25.3117 34.4995 24.9055 36.1402 24.468C37.6558 24.0617 39.2183 23.6399 40.484 22.7336C41.7184 21.8273 42.5934 20.4836 43.4371 19.1711C44.359 17.7336 45.234 16.3742 46.3277 16.0305C47.3277 15.7024 48.7965 16.2649 50.3589 16.8586C51.8589 17.4367 53.4058 18.0148 54.9995 18.0148C56.5932 18.0148 58.1557 17.4211 59.6401 16.8586C61.2026 16.2649 62.6557 15.7024 63.6713 16.0305C64.7651 16.3899 65.6401 17.7336 66.5619 19.1711C67.4057 20.4836 68.2807 21.8273 69.515 22.7336C70.765 23.6398 72.3431 24.0617 73.8588 24.468C75.4994 24.9055 77.0463 25.3274 77.7026 26.218C78.3433 27.1086 78.2651 28.6868 78.187 30.3742C78.1089 31.9523 78.0308 33.5773 78.5151 35.0773C78.9839 36.5148 79.9839 37.7492 80.9526 38.9367C82.0464 40.2805 83.062 41.5305 83.062 42.7179C83.062 43.9053 82.0308 45.1554 80.9526 46.4991C79.9839 47.6866 78.9838 48.921 78.5151 50.3585C78.0308 51.8585 78.1089 53.4835 78.187 55.0616C78.2651 56.7491 78.3589 58.3272 77.7026 59.2178C77.0464 60.1241 75.4995 60.5303 73.8588 60.9678C72.3432 61.3741 70.765 61.7959 69.515 62.7022C68.2806 63.6085 67.4056 64.9522 66.5619 66.2647C65.64 67.7022 64.765 69.0616 63.6713 69.4053C62.812 69.6866 61.5932 69.3116 60.2807 68.8272C60.2651 68.8272 60.2495 68.8272 60.2339 68.8116C60.0307 68.7334 59.8432 68.6709 59.6401 68.5928C58.1401 68.0147 56.5932 67.4366 54.9995 67.4366C53.4058 67.4366 51.8434 68.0304 50.359 68.5928ZM73.687 82.8738C73.2807 82.6394 72.7963 82.5926 72.3745 82.7488C71.937 82.9051 71.5932 83.2488 71.437 83.6863L68.7495 91.0301L62.1089 72.5771C62.9526 72.6865 63.7964 72.6709 64.6401 72.3896C66.7807 71.6865 68.062 69.7177 69.187 67.9677C69.9057 66.8583 70.5932 65.7958 71.3589 65.2333C71.6557 65.0146 72.0307 64.8427 72.437 64.6708L80.4058 86.8118L73.687 82.8587V82.8738Z" fill="white"/>
</svg>
