<svg width="110" height="110" viewBox="0 0 110 110" fill="none" xmlns="http://www.w3.org/2000/svg">
<path fill-rule="evenodd" clip-rule="evenodd" d="M105.312 77.283C105.251 75.8867 105.234 74.4081 105.143 72.9426C99.2206 74.4946 93.7607 69.1513 95.2218 63.1811C95.3558 62.6408 95.5417 62.1263 95.7708 61.6335C92.5934 61.0542 89.1133 61.0024 86.5151 60.7862C85.737 60.7214 84.9632 60.6781 84.2282 60.6133C84.172 61.158 83.7138 61.5773 83.1561 61.5773L37.4912 61.5816C36.0732 61.5816 36.0732 59.4288 37.4912 59.4288H80.1945C80.1556 59.3899 80.1167 59.3553 80.0821 59.3164C76.8571 55.7585 72.7589 45.4095 68.3533 45.3741C63.8314 45.3352 32.5325 44.6305 30.8769 45.3092C23.1601 48.4738 25.1877 55.6413 19.1834 60.6261C16.8965 62.5238 14.0692 61.201 12.4005 63.8813C12.0676 64.4131 11.8601 65.7748 11.7391 67.4867H15.8892C19.5293 67.4867 21.4184 71.9222 18.8073 74.5377C18.0594 75.2856 17.0261 75.7525 15.8892 75.7525H11.5618C11.5661 76.3015 11.5704 76.8203 11.5747 77.2915H21.5741C23.3033 73.1586 27.3843 70.2578 32.144 70.2578C36.9037 70.2578 40.9847 73.1629 42.7139 77.2915H73.9009C75.6301 73.1586 79.7111 70.2578 84.4709 70.2578C89.2306 70.2578 93.3116 73.1629 95.0408 77.2915L105.312 77.283ZM104.944 70.8027C104.862 70.807 104.776 70.8157 104.694 70.8416C100.319 72.0564 96.2334 68.1051 97.3141 63.687C97.5259 62.818 97.8242 62.4333 97.9064 62.1263C102.532 63.4707 104.313 66.1079 104.944 70.8027ZM11.6224 69.6355H11.6613H15.885C16.4297 69.6355 16.9225 69.8559 17.2813 70.2191C18.5393 71.4771 17.6142 73.5911 15.885 73.5911H11.5532C11.5575 72.2898 11.5749 70.9237 11.6224 69.6355ZM83.161 66.7304C84.5789 66.7304 84.5789 68.8832 83.161 68.8832H54.5471C53.1292 68.8832 53.1292 66.7304 54.5471 66.7304H83.161ZM32.1441 72.4022C37.2799 72.4022 41.443 76.5653 41.443 81.7011C41.443 86.8369 37.2799 91 32.1441 91C27.0083 91 22.8452 86.8369 22.8452 81.7011C22.8409 76.5653 27.0083 72.4022 32.1441 72.4022ZM20.9132 83.9662H10.6329C10.2438 83.9662 9.92392 83.6074 9.92392 83.1664V80.2354C9.92392 79.7945 10.2438 79.4357 10.6329 79.4357H20.9132C20.6149 80.9272 20.6149 82.4747 20.9132 83.9662ZM43.3716 79.4356H73.2394C72.9411 80.9271 72.9411 82.4747 73.2394 83.9662H43.3716C43.6699 82.4747 43.6699 80.9271 43.3716 79.4356ZM95.7022 79.4356H105.983C106.372 79.4356 106.692 79.7944 106.692 80.2353V83.1664C106.692 83.6073 106.372 83.9661 105.983 83.9661H95.7022C96.0005 82.4746 96.0005 80.9271 95.7022 79.4356ZM84.4714 72.4019C89.6072 72.4019 93.7703 76.565 93.7703 81.7008C93.7703 86.8366 89.6072 90.9997 84.4714 90.9997C79.3356 90.9997 75.1725 86.8366 75.1725 81.7008C75.1725 76.565 79.3356 72.4019 84.4714 72.4019ZM32.1452 78.1257C30.1695 78.1257 28.57 79.7252 28.57 81.7009C28.57 83.6766 30.1695 85.2761 32.1452 85.2761C34.1209 85.2761 35.7204 83.6766 35.7204 81.7009C35.7161 79.7252 34.1166 78.1257 32.1452 78.1257ZM84.4714 78.1257C82.4957 78.1257 80.8962 79.7252 80.8962 81.7009C80.8962 83.6766 82.4957 85.2761 84.4714 85.2761C86.4471 85.2761 88.0466 83.6766 88.0466 81.7009C88.0466 79.7252 86.4471 78.1257 84.4714 78.1257ZM58.58 43.0785L51.6198 31.0209C55.8781 25.2712 52.4152 19.4437 45.7231 18.0304L49.1514 23.966C49.2379 24.113 49.2249 24.2773 49.16 24.4329L47.0893 29.4476C47.0158 29.6249 46.8299 29.7329 46.6397 29.707L41.2574 28.9937C41.0888 28.9721 40.9418 28.8986 40.8554 28.7516L37.4271 22.816C35.3045 29.3179 38.6203 35.2277 45.7274 34.4143L50.6471 42.935C53.2928 42.9783 55.9385 43.0266 58.58 43.0785ZM38.7799 42.858C36.6703 42.8667 33.5014 42.8494 31.5042 43.0266C29.9392 39.1833 26.1695 36.4728 21.7643 36.4728C15.9584 36.4728 11.2506 41.1806 11.2506 46.9865C11.2506 52.0012 14.7609 56.1946 19.4558 57.2451C18.9889 57.8547 18.4485 58.4296 17.8087 58.9614C16.6414 59.9298 14.6788 59.558 12.6556 60.6993C11.9467 57.2581 8.30229 55.2565 5.03407 56.5058C4.32077 55.2003 3.74144 53.8083 3.31348 52.3514C7.78789 50.3498 7.78789 43.93 3.31348 41.9284C3.74146 40.4716 4.32076 39.0795 5.03407 37.774C9.61219 39.5248 14.1515 34.9813 12.405 30.4031C13.7105 29.6898 15.1026 29.1104 16.5594 28.6825C18.561 33.1569 24.9808 33.1569 26.9824 28.6825C28.4393 29.1105 29.8313 29.6897 31.1369 30.4031C29.386 34.9812 33.9295 39.5204 38.5077 37.774C39.2211 39.0795 39.8004 40.4716 40.2283 41.9284C39.6923 42.1662 39.2079 42.4819 38.7799 42.858Z" fill="white"/>
</svg>
