<svg width="101" height="101" viewBox="0 0 101 101" fill="none" xmlns="http://www.w3.org/2000/svg">
<path d="M25.0819 78.318C25.5912 78.9062 25.8709 79.6558 25.8709 80.4305V86.309C25.8709 86.8183 26.2834 87.2272 26.7891 87.2272H42.4487C42.9544 87.2272 43.3669 86.8183 43.3669 86.309V70.4346C43.3669 69.0823 42.8397 67.8091 41.882 66.8551L30.8244 55.7938C28.9485 53.9179 25.9644 53.814 23.9631 55.4782V43.0322C23.9631 40.335 21.9438 38.0288 19.365 37.7813C17.9339 37.6414 16.5028 38.1185 15.4412 39.0797C14.3832 40.0445 13.7734 41.4182 13.7734 42.8529V61.8335C13.7734 64.0501 14.5733 66.1913 16.0222 67.8627L25.0819 78.318ZM15.6099 42.8532C15.6099 41.935 15.9973 41.0599 16.6788 40.443C17.3674 39.8189 18.2569 39.5284 19.193 39.6109C20.8393 39.7687 22.1269 41.2715 22.1269 43.0326V59.3413C22.1269 59.3628 22.1269 59.3844 22.1305 59.4059C22.1305 60.7079 22.629 62.0097 23.6189 62.9997L30.6093 69.9901C30.968 70.3488 31.549 70.3488 31.9077 69.9901C32.2664 69.6315 32.2664 69.0505 31.9077 68.6917L24.9173 61.7013C23.6477 60.4317 23.6477 58.3658 24.9173 57.0925C26.187 55.8229 28.2529 55.8229 29.5262 57.0925L40.5838 68.1539C41.1935 68.7636 41.5307 69.5742 41.5307 70.435V85.3912H27.7074V80.431C27.7074 79.2151 27.2699 78.035 26.47 77.1169L17.4101 66.6615C16.2481 65.3202 15.6096 63.6057 15.6096 61.8339L15.6099 42.8532Z" fill="white"/>
<path d="M81.6367 37.7813C79.0579 38.0252 77.0386 40.335 77.0386 43.0322V55.4819C75.0373 53.8177 72.0532 53.9217 70.1773 55.7975L59.1197 66.8552C58.162 67.8092 57.6348 69.0825 57.6348 70.4346V86.309C57.6348 86.8183 58.0472 87.2272 58.5529 87.2272H74.2125C74.7183 87.2272 75.1307 86.8183 75.1307 86.309V80.4306C75.1307 79.6558 75.4105 78.9026 75.9198 78.318L84.9797 67.8627C86.4287 66.1877 87.2285 64.0465 87.2285 61.8335V42.8529C87.2285 41.4182 86.6188 40.0481 85.5607 39.0833C84.5027 38.1184 83.0713 37.6379 81.6367 37.7813ZM85.3919 61.8331C85.3919 63.6049 84.7534 65.3193 83.5914 66.6607L74.5315 77.1161C73.7353 78.0378 73.2941 79.2143 73.2941 80.4301V85.3904H59.4709V70.4342C59.4709 69.5734 59.808 68.7628 60.4177 68.153L71.479 57.0917C72.7487 55.822 74.8146 55.822 76.0878 57.0917C77.3575 58.3614 77.3575 60.4273 76.0878 61.7005L69.0939 68.6909C68.7352 69.0496 68.7352 69.6306 69.0939 69.9893C69.4525 70.348 70.0335 70.348 70.3923 69.9893L77.3827 62.9989C78.3725 62.009 78.8711 60.707 78.8711 59.4051C78.8711 59.3835 78.8747 59.362 78.8747 59.3405V43.0318C78.8747 41.2707 80.1659 39.7679 81.8086 39.6101C82.7411 39.5276 83.6342 39.8181 84.3228 40.4422C85.0043 41.0555 85.3917 41.9342 85.3917 42.8524L85.3919 61.8331Z" fill="white"/>
<path d="M50.5073 57.6725C51.0131 57.6725 51.4255 57.2637 51.4255 56.7544V52.9238C63.9679 52.436 74.0247 42.013 74.0247 29.2733C74.0247 28.8142 73.6876 28.4268 73.2357 28.3623C68.0637 27.6306 63.6453 28.1507 60.0331 29.901C59.9327 26.7878 58.7527 19.9552 51.0665 13.9622C50.7366 13.704 50.2703 13.704 49.9367 13.9622C42.2541 19.9555 41.0706 26.7883 40.9701 29.901C37.3584 28.1507 32.936 27.6341 27.7676 28.3623C27.3157 28.4268 26.9785 28.8142 26.9785 29.2733C26.9785 42.0167 37.039 52.4427 49.5887 52.9238V56.7544C49.5887 57.2637 49.998 57.6725 50.5073 57.6725ZM72.1746 30.0803C71.7621 41.4391 62.6916 50.6099 51.4255 51.0873V48.4799C51.4255 48.3866 51.508 38.9822 57.6842 33.6237C61.2135 30.5607 66.0883 29.3701 72.1746 30.0803ZM50.5009 15.8668C58.162 22.165 58.2911 29.1915 58.1907 30.9489C57.5917 31.3434 57.0143 31.7738 56.4691 32.2508C53.1048 35.1775 51.3832 39.0727 50.5045 42.3187C49.6258 39.0728 47.9042 35.1742 44.5363 32.2508C43.9876 31.7774 43.4137 31.3434 42.8111 30.9489C42.7107 29.1878 42.8434 22.1616 50.5009 15.8668ZM28.8272 30.0803C34.9138 29.3701 39.7885 30.5609 43.3207 33.6275C49.497 38.9823 49.5866 48.3827 49.5866 48.4837V51.0911C38.3177 50.6177 29.2395 41.4428 28.8272 30.0803Z" fill="white"/>
</svg>
