<svg width="110" height="110" viewBox="0 0 110 110" fill="none" xmlns="http://www.w3.org/2000/svg">
<path d="M99.8545 61.4489L85.1985 36.0659C84.9016 35.5503 84.2454 35.3745 83.7297 35.6713L74.675 40.8979C74.4289 41.0425 74.2492 41.2769 74.175 41.5542C74.1008 41.8276 74.1399 42.1206 74.2805 42.3706L75.0891 43.769L70.6789 46.2963C67.9016 47.3041 65.8117 46.8744 62.6594 46.226C61.1516 45.9135 59.4406 45.5619 57.3508 45.308H57.3547C54.3625 44.9252 51.3547 45.8627 49.1086 47.8705L41.2805 46.6869C39.6164 46.4525 38.0305 45.8236 36.6555 44.851L36.2141 44.5502L37.1828 43.144C37.3469 42.9097 37.4094 42.6167 37.3547 42.3354C37.3039 42.0542 37.1438 41.8042 36.9055 41.644L28.2922 35.7221C28.0578 35.5581 27.7648 35.4956 27.4836 35.5464C27.2023 35.601 26.9523 35.7612 26.7922 35.9995L10.1872 60.1475C10.027 60.3819 9.96452 60.6748 10.0153 60.9561C10.0661 61.2373 10.2301 61.4834 10.4645 61.6475L19.0778 67.5694C19.3161 67.7334 19.6052 67.7959 19.8864 67.7413C20.1677 67.6905 20.4177 67.5303 20.5778 67.292L21.3591 66.1553C22.7653 67.2061 24.0544 68.1944 25.2575 69.1631L24.2575 70.5772H24.2614C23.2731 71.9756 23.1442 73.8116 23.9293 75.3389C24.7145 76.8662 26.2848 77.8272 27.9996 77.835C28.0621 77.835 28.1246 77.835 28.1871 77.8272C27.7965 79.6202 28.5192 81.4756 30.023 82.5342C30.8004 83.0772 31.7261 83.3702 32.6753 83.3663C32.8824 83.3663 33.0894 83.3545 33.2925 83.3272C33.2535 83.7256 33.2691 84.1319 33.3355 84.5264C33.7066 86.7373 35.6207 88.3545 37.8628 88.3506C39.0073 88.3506 40.1128 87.9287 40.9605 87.1592C41.5425 88.6319 42.8355 89.6983 44.3902 89.9912C45.9449 90.2842 47.5386 89.7568 48.6129 88.6006L53.9137 92.3662C54.8785 93.0615 56.0387 93.4443 57.234 93.4521C58.6988 93.4873 60.0895 92.8076 60.9645 91.6279C61.57 90.7568 61.8395 89.6943 61.7106 88.6396C62.2028 88.7802 62.7106 88.8544 63.2223 88.8544C64.6911 88.8935 66.0817 88.2138 66.9528 87.0341C67.5778 86.1396 67.8395 85.0458 67.695 83.9716C68.1364 84.0849 68.5934 84.1435 69.0505 84.1435C70.5153 84.1826 71.9099 83.5029 72.781 82.3232C73.3396 81.5459 73.6404 80.6123 73.6404 79.6513C74.281 79.9052 74.9646 80.0341 75.6521 80.038C75.9333 80.038 76.2146 80.0146 76.4958 79.9677C77.6638 79.8037 78.7106 79.163 79.3903 78.1982C80.07 77.2334 80.3239 76.0302 80.0895 74.8779C79.8903 73.8076 79.3786 72.8232 78.6207 72.0498C79.3043 71.624 79.9098 71.1983 80.4996 70.7764C81.4215 70.0772 82.4137 69.4678 83.4527 68.9561C83.484 68.9405 83.5113 68.9288 83.5387 68.9092L88.1012 66.2998L88.941 67.7529H88.9371C89.0816 67.999 89.316 68.1787 89.5934 68.2529C89.6832 68.2764 89.7769 68.2881 89.8707 68.2881C90.0582 68.2881 90.2457 68.2412 90.4098 68.1436L99.4645 62.917H99.4605C99.9762 62.6201 100.151 61.9646 99.8545 61.4489ZM19.4135 65.1833L12.5737 60.4841L27.9607 38.1011L34.8005 42.8003L19.4135 65.1833ZM26.5893 75.2303C25.4916 74.4451 25.2338 72.9217 26.0112 71.8201L29.8276 66.449H29.8237C30.1987 65.9177 30.7729 65.5623 31.4135 65.4568C31.5502 65.4333 31.6908 65.4216 31.8315 65.4216C32.7416 65.4255 33.5776 65.9372 33.9917 66.7497C34.4096 67.5622 34.3432 68.5388 33.8159 69.2809L29.9995 74.652C29.2143 75.7536 27.6909 76.0116 26.5893 75.2303ZM31.2573 80.7733C30.73 80.4022 30.3745 79.8397 30.269 79.2069C30.1597 78.5741 30.312 77.9257 30.687 77.4061L36.9878 68.6756V68.6717C37.7847 67.5701 39.3237 67.3084 40.4409 68.0896C41.4487 68.7967 41.7573 70.156 41.1518 71.2302L39.5385 73.4997L34.7104 80.1911C33.9097 81.2927 32.3745 81.5507 31.2573 80.7733ZM36.4487 85.7499C35.351 84.9686 35.0932 83.4491 35.8706 82.3515L41.269 74.7734L42.7495 72.7187C42.8237 72.6171 42.894 72.5077 42.9565 72.4023L43.4096 71.7695L43.4135 71.7656C44.1987 70.664 45.7299 70.4062 46.8354 71.1874C47.9292 71.9687 48.187 73.4882 47.4097 74.5897L45.7808 76.8749C45.605 77.0507 45.4448 77.2421 45.3003 77.4452L41.4839 82.8163C41.355 82.996 41.2417 83.1874 41.1401 83.3867L39.8706 85.1719C39.0816 86.2735 37.5542 86.5312 36.4487 85.7499ZM45.6479 87.8827V87.8866C44.7573 88.0428 43.8549 87.6952 43.3002 86.9803C42.7455 86.2694 42.6322 85.3084 42.9994 84.4842L47.4135 78.2889V78.2928C47.7612 77.9803 48.187 77.7772 48.644 77.6991C48.7808 77.6756 48.9214 77.6639 49.062 77.6639C49.5659 77.6639 50.0581 77.8202 50.4682 78.1131C51.5698 78.8944 51.8276 80.4217 51.0463 81.5233L47.5151 86.5L47.2339 86.8945C46.8589 87.4257 46.2847 87.7812 45.6441 87.8867L45.6479 87.8827ZM77.6319 76.9607V76.9685C77.2725 77.449 76.7374 77.7654 76.1436 77.8474C75.2374 77.9763 74.3194 77.7419 73.585 77.199L64.2412 70.5076C63.7607 70.1755 63.1006 70.2927 62.7607 70.7693C62.417 71.2458 62.5224 71.906 62.9873 72.2576L70.1943 77.4178C70.831 77.8357 71.2841 78.4803 71.4521 79.2264C71.5693 79.8748 71.4169 80.5428 71.0302 81.0741C70.2294 82.1913 68.3818 82.2968 66.9794 81.3006L65.331 80.1287L60.6591 76.8162C60.4247 76.6522 60.1396 76.5858 59.8583 76.6326C59.5771 76.6834 59.3232 76.8397 59.1591 77.0701C58.8153 77.5545 58.9286 78.2263 59.413 78.5701L64.081 81.8865C65.4794 82.8865 65.9912 84.6677 65.1982 85.7849C64.4013 86.906 62.5498 87.0076 61.1474 86.0154L59.3388 84.7302L56.9208 83.0114C56.4364 82.6833 55.7802 82.8005 55.4403 83.277C55.1005 83.7575 55.2059 84.4176 55.6747 84.7653L58.0927 86.4841C59.4911 87.4841 60.0029 89.2653 59.2099 90.3825C58.413 91.4997 56.5615 91.6052 55.1591 90.6091L49.8896 86.8669L52.7998 82.7653V82.7692C54.2725 80.6989 53.7842 77.8278 51.7139 76.3551C51.0264 75.8629 50.2139 75.5739 49.3662 75.5192C50.585 73.4645 50.0263 70.8161 48.0771 69.4294C46.7333 68.4801 44.9873 68.32 43.4912 69.0075C43.2373 67.9216 42.5888 66.9645 41.6748 66.3278C40.0146 65.1755 37.7998 65.2223 36.1904 66.4411C35.8857 65.5036 35.288 64.6872 34.4834 64.1169C32.4131 62.6481 29.542 63.1325 28.0693 65.1989L26.5068 67.3981C25.288 66.4254 23.9912 65.4293 22.5771 64.3747L34.9991 46.3127L35.4327 46.6134C37.0733 47.7736 38.9679 48.5275 40.96 48.8126L47.167 49.7541C45.8701 51.2424 44.6631 52.8088 43.5537 54.4377C42.3584 56.2268 41.0264 57.9143 39.5615 59.4885C38.663 60.3986 38.8232 61.8596 39.9755 63.1291C41.0302 64.4807 42.6122 65.3244 44.3232 65.4494H44.3935C47.0341 65.4494 49.1669 63.2306 51.2294 61.0861C52.8778 59.3713 54.5888 57.5978 55.9833 57.7345V57.7384C56.8818 58.1563 57.6864 58.7462 58.3544 59.4767C59.4638 60.59 60.7528 61.5119 62.1708 62.1955L76.4828 73.0475L76.5219 73.0748C77.2719 73.5787 77.7914 74.36 77.9672 75.2506C78.0883 75.8443 77.9672 76.4654 77.6274 76.9694L77.6319 76.9607ZM82.5186 67.0154V67.0232C81.3702 67.5857 80.2803 68.2537 79.2569 69.0232C78.4757 69.5935 77.6671 70.1248 76.8272 70.6091L68.1514 64.031H68.1553C69.6084 64.2732 71.1006 64.199 72.5225 63.8161C72.7999 63.7341 73.0303 63.5427 73.1631 63.2849C73.2959 63.031 73.3194 62.7302 73.2295 62.4568C73.1436 62.1794 72.9444 61.9529 72.6866 61.824C72.4288 61.6951 72.1319 61.6794 71.8585 61.7732C69.8976 62.4099 66.2647 61.8083 63.2452 60.324C63.2139 60.3045 63.1787 60.2888 63.1436 60.2732C61.9444 59.6951 60.8506 58.9216 59.9092 57.9841C59.8858 57.9607 57.7451 55.7458 56.2022 55.5935C53.7569 55.3552 51.6866 57.5076 49.6827 59.5935C47.9327 61.4138 46.1202 63.2927 44.3936 63.2927H44.3584C43.2451 63.1677 42.2334 62.5818 41.5693 61.6794C41.3701 61.4724 41.2217 61.2224 41.1396 60.9489C42.663 59.3044 44.0576 57.5427 45.3076 55.6794C46.6904 53.5583 48.3037 51.5974 50.1124 49.8239L50.1241 49.8122C51.9639 47.9997 54.5303 47.1247 57.0968 47.4372C59.0968 47.6833 60.7609 48.0271 62.2335 48.3278C65.5226 49.0036 68.1202 49.5387 71.5147 48.281H71.5108C71.5694 48.2575 71.6201 48.2341 71.6748 48.2028L76.1709 45.6247L87.0229 64.4367L82.5186 67.0154ZM90.2686 65.7381L76.6826 42.2221L83.874 38.0698L97.452 61.6008L90.2686 65.7381ZM53.9246 37.9491V27.6211C53.9246 27.0273 54.4051 26.5469 54.9988 26.5469C55.5925 26.5469 56.073 27.0273 56.073 27.6211V37.9491C56.073 38.5428 55.5925 39.0272 54.9988 39.0272C54.4051 39.0272 53.9246 38.5428 53.9246 37.9491ZM62.7254 39.5702L67.8895 30.6288H67.8856C68.0262 30.3788 68.2645 30.1991 68.5379 30.1249C68.8153 30.0506 69.1083 30.0897 69.3544 30.2303C69.87 30.5272 70.0497 31.1835 69.7528 31.6991L64.5887 40.6405V40.6444C64.284 41.1405 63.6395 41.3085 63.1317 41.0155C62.6278 40.7226 62.4481 40.078 62.7254 39.5663L62.7254 39.5702ZM40.2454 31.6991C40.0931 31.453 40.0501 31.1561 40.1204 30.8749C40.1946 30.5936 40.3743 30.3514 40.6243 30.2069C40.8782 30.0624 41.1751 30.0272 41.4564 30.1053C41.7337 30.1834 41.9681 30.3709 42.1087 30.6249L47.2728 39.5663C47.4212 39.8123 47.4681 40.1131 47.3939 40.3944C47.3236 40.6717 47.14 40.9139 46.89 41.0584C46.64 41.203 46.3392 41.242 46.0619 41.1639C45.7845 41.0858 45.5462 40.8983 45.4095 40.6444L40.2454 31.6991Z" fill="white"/>
</svg>
