<svg width="110" height="110" viewBox="0 0 110 110" fill="none" xmlns="http://www.w3.org/2000/svg">
<path fill-rule="evenodd" clip-rule="evenodd" d="M79.75 33.5H48.5V92.875H51.625C53.3516 92.875 54.75 94.2734 54.75 96C54.75 97.7266 53.3516 99.125 51.625 99.125H23.5C21.7734 99.125 20.375 97.7266 20.375 96C20.375 94.2734 21.7734 92.875 23.5 92.875H26.625V46H20.375C17.8867 46 15.5039 45.0117 13.7461 43.2539C11.9883 41.4961 11 39.1133 11 36.625V24.125C11 21.6367 11.9883 19.2539 13.7461 17.4961C15.5039 15.7383 17.8867 14.75 20.375 14.75H23.5C25.9883 14.75 28.3711 15.7383 30.1289 17.4961C31.8867 19.2539 32.875 21.6367 32.875 24.125V27.25H34.4375V20.375C34.4375 17.3477 35.8984 14.5078 38.3633 12.7461C40.8281 10.9883 43.9883 10.5234 46.8516 11.5078L92.7736 27.2498H95.3752C97.1018 27.2498 98.5002 28.6482 98.5002 30.3748C98.5002 32.1014 97.1018 33.4998 95.3752 33.4998H92.1877H86.0002V39.7498H79.7502L79.75 33.5ZM40.688 27.25H73.5L44.824 17.418C43.8709 17.0899 42.8201 17.2461 41.9959 17.832C41.1756 18.418 40.6873 19.3672 40.6873 20.375L40.688 27.25ZM89.126 46C94.3057 46 98.501 50.1953 98.501 55.375V61.625C98.501 66.8047 94.3057 71 89.126 71H76.626C71.4463 71 67.251 66.8047 67.251 61.625V55.375C67.251 50.1953 71.4463 46 76.626 46H89.126Z" fill="white"/>
</svg>
