<svg width="94" height="95" viewBox="0 0 94 95" fill="none" xmlns="http://www.w3.org/2000/svg">
<path d="M46.9987 26.2769C40.7966 26.2735 34.9146 29.0341 30.9529 33.8075C26.9906 38.5809 25.3549 44.8696 26.4966 50.9651C27.6382 57.0637 31.4302 62.3348 36.8511 65.3522V68.3866C34.9885 69.7251 34.5346 72.3054 35.8264 74.2015C35.3524 74.9091 35.0987 75.7403 35.092 76.5916V76.8953C35.0987 79.055 36.6776 80.891 38.814 81.2215C39.6284 84.6697 42.6962 87.1098 46.2378 87.1299H47.7499C51.2916 87.1098 54.3593 84.6664 55.1738 81.2215C57.3068 80.8876 58.8824 79.0517 58.8891 76.8953V76.5916C58.8824 75.7437 58.6287 74.9125 58.1547 74.2048C59.4532 72.3122 59.0026 69.7251 57.1333 68.3832V65.3522C62.5577 62.338 66.3564 57.0672 67.4981 50.9685C68.643 44.8732 67.0107 38.581 63.0485 33.8075C59.0862 29.0341 53.2036 26.2735 46.9987 26.2769ZM54.6462 70.233C54.8565 70.233 55.0601 70.273 55.2537 70.3531C55.2671 70.3598 55.2804 70.3698 55.2938 70.3765V70.3798C55.9781 70.6803 56.352 71.4214 56.1951 72.1523C56.0382 72.88 55.3939 73.4007 54.6462 73.3974H39.3481C38.6004 73.4008 37.9562 72.88 37.7993 72.149C37.6424 71.4213 38.0196 70.6802 38.7006 70.3765C38.7139 70.3765 38.7239 70.3598 38.7406 70.3531H38.7373C38.9309 70.273 39.1378 70.233 39.3481 70.233L54.6462 70.233ZM47.3859 42.1569C46.9286 42.1569 46.518 41.8832 46.3444 41.4626C46.1708 41.0386 46.2676 40.5546 46.5881 40.2342C46.9118 39.9137 47.3959 39.8169 47.8165 39.9905C48.2371 40.1674 48.5108 40.578 48.5108 41.032C48.5108 41.6529 48.0068 42.1569 47.3859 42.1569ZM47.7497 84.4603H46.2376C44.1981 84.4469 42.3688 83.1918 41.6244 81.2892H52.3592C51.6182 83.1886 49.7893 84.447 47.7497 84.4603ZM56.2185 76.8962C56.2185 77.8476 55.4474 78.6186 54.496 78.6186H39.4851C38.5337 78.6186 37.7627 77.8475 37.7627 76.8962V76.5924C37.7627 76.322 37.8261 76.055 37.9463 75.8147C38.3969 75.9782 38.8709 76.065 39.3482 76.0684H54.6429C55.1169 76.065 55.5876 75.9782 56.0348 75.8147C56.155 76.0583 56.2184 76.322 56.2184 76.5924L56.2185 76.8962ZM55.197 63.3636C54.7464 63.5906 54.4626 64.0513 54.4626 64.5553V67.5662L52.8737 67.5629V59.685L56.0415 56.5305C56.2919 56.2801 56.4321 55.9397 56.4321 55.5858V50.7523C58.1511 50.1081 59.1626 48.3256 58.8355 46.5197C58.505 44.7138 56.9327 43.4019 55.0968 43.4019C53.2642 43.4019 51.6886 44.7138 51.3615 46.5197C51.0344 48.3256 52.0458 50.1081 53.7616 50.7523V55.025L50.5938 58.1795L50.5971 58.1828C50.3434 58.4332 50.2032 58.7737 50.2032 59.1276V67.5562H48.7211V44.5706C50.4369 43.9264 51.4483 42.1472 51.1179 40.3413C50.7907 38.5354 49.2185 37.2236 47.3859 37.2236C45.5533 37.2236 43.981 38.5355 43.6539 40.3413C43.3234 42.1472 44.3349 43.9264 46.0507 44.5706V67.563H44.4617V64.0914C44.4617 63.7376 44.3215 63.3971 44.0712 63.1467L39.9219 58.9942V55.4324C41.641 54.7882 42.6491 53.0057 42.322 51.2031C41.9949 49.3972 40.4226 48.0854 38.5867 48.0854C36.7508 48.0854 35.1785 49.3973 34.8514 51.2031C34.5243 53.0057 35.5324 54.7882 37.2515 55.4324V59.5482C37.2515 59.9021 37.3917 60.2426 37.642 60.4929L41.7913 64.6389V67.563H39.5214V64.5521C39.5214 64.0481 39.2377 63.5874 38.7904 63.3605C33.8834 60.8836 30.3617 56.3205 29.2067 50.9465C28.0517 45.5722 29.3869 39.9639 32.8418 35.6886C36.2934 31.4125 41.4975 28.9289 46.9922 28.9289C52.49 28.9289 57.6911 31.4124 61.1452 35.6886C64.6001 39.9646 65.9354 45.5722 64.7804 50.9465C63.6254 56.3208 60.1037 60.884 55.1966 63.3605L55.197 63.3636ZM55.0935 48.3424C54.6396 48.3424 54.229 48.0687 54.052 47.6481C53.8784 47.2275 53.9752 46.7435 54.2957 46.423C54.6195 46.0992 55.1035 46.0024 55.5241 46.176C55.9447 46.3496 56.2184 46.7602 56.2184 47.2175C56.2151 47.8351 55.7144 48.3391 55.0935 48.3391L55.0935 48.3424ZM38.5871 53.0191C38.1332 53.0191 37.7226 52.7454 37.5456 52.3248C37.372 51.9042 37.4688 51.4202 37.7926 51.0964C38.1131 50.7759 38.5971 50.6791 39.0177 50.8527C39.4383 51.0263 39.712 51.4368 39.712 51.8942C39.712 52.5151 39.208 53.0191 38.5871 53.0191Z" fill="white"/>
<path d="M14.0995 53.1049C15.4014 53.0949 16.5597 53.9328 16.957 55.1712C17.4977 56.8603 18.1787 58.5026 18.9965 60.0749C19.6007 61.2365 19.3771 62.6552 18.4457 63.5765C17.3742 64.6447 16.7767 66.0934 16.7767 67.6055C16.7767 69.1143 17.3742 70.5664 18.4457 71.6345L20.9827 74.1715C23.2126 76.3914 26.821 76.388 29.0475 74.1615C29.4948 73.7109 30.0756 73.4138 30.7065 73.317C31.4342 73.2035 31.9349 72.5225 31.8214 71.7949C31.7079 71.0638 31.0236 70.5665 30.2959 70.6799C29.1042 70.8635 28.0026 71.4243 27.1514 72.2822C25.9531 73.4238 24.067 73.4238 22.8687 72.2822L20.3317 69.7452C19.1501 68.5569 19.1534 66.6375 20.3384 65.4558C22.0942 63.7167 22.5082 61.0329 21.3665 58.8431C20.6188 57.4044 19.9912 55.9056 19.4972 54.3601C18.7495 52.0134 16.5663 50.4211 14.1029 50.4311C12.4305 50.4311 11.0752 49.0792 11.0752 47.4068V43.8151C11.0752 42.1461 12.4304 40.7908 14.0995 40.7908C16.563 40.8008 18.7461 39.2085 19.4938 36.8651C19.9912 35.3196 20.6154 33.8242 21.3632 32.3854C22.5081 30.1923 22.0875 27.5052 20.3284 25.766C19.1501 24.581 19.1501 22.6683 20.3284 21.4833L22.8654 18.9463C23.4362 18.3789 24.2073 18.0617 25.0117 18.0617C25.8162 18.0617 26.5873 18.3855 27.1548 18.953C28.8973 20.7088 31.5777 21.1228 33.7675 19.9811C35.2062 19.2334 36.7083 18.6058 38.2539 18.1118C40.6005 17.3641 42.1895 15.181 42.1795 12.7175C42.1795 11.0451 43.5314 9.68982 45.2038 9.68649H48.7955C50.4645 9.68983 51.8199 11.0417 51.8199 12.7141C51.8098 15.1776 53.4021 17.3607 55.7488 18.1085C57.2943 18.6025 58.7931 19.2267 60.2318 19.9778C62.4249 21.1194 65.1087 20.7021 66.8512 18.943C68.0362 17.7647 69.9489 17.7647 71.1339 18.943L73.6709 21.48C74.8526 22.665 74.8493 24.5844 73.6642 25.7694C71.9084 27.5086 71.4911 30.1923 72.6361 32.3854C73.3839 33.8242 74.0081 35.3263 74.5055 36.8718C75.2532 39.2151 77.4363 40.8074 79.8998 40.7974C81.5721 40.7974 82.9241 42.1526 82.9274 43.8217V47.4068C82.9241 49.0792 81.5722 50.4311 79.8998 50.4345C77.4363 50.4245 75.2532 52.0134 74.5055 54.3601C74.0114 55.9056 73.3839 57.4044 72.6361 58.8431C71.4945 61.0396 71.9118 63.7233 73.6709 65.4658C74.8526 66.6475 74.8526 68.5636 73.6709 69.7452L71.1339 72.2822C69.9356 73.4305 68.0395 73.4271 66.8445 72.2755C65.9032 71.3308 64.6581 70.75 63.3295 70.6332C62.9757 70.5965 62.6219 70.7066 62.3515 70.937C62.0778 71.1639 61.9109 71.4911 61.8842 71.8482C61.8208 72.5826 62.3615 73.2302 63.0959 73.2936C63.8036 73.357 64.4646 73.6675 64.9652 74.1715C67.1918 76.3913 70.7968 76.3913 73.0234 74.1715L75.5603 71.6345C76.6318 70.563 77.2327 69.111 77.2293 67.5988C77.2293 66.0866 76.6252 64.6379 75.5537 63.5697C74.629 62.6485 74.4053 61.2331 75.0096 60.0748C75.824 58.5026 76.505 56.8603 77.0424 55.1712C77.4397 53.9361 78.5946 53.0982 79.8931 53.1049C83.0376 53.1016 85.5879 50.5513 85.5912 47.4068V43.815C85.5879 40.6706 83.0376 38.1236 79.8931 38.1203C78.5946 38.1269 77.4396 37.2891 77.0424 36.0506C76.5017 34.3615 75.8207 32.7226 75.0029 31.147C74.3987 29.9853 74.6224 28.5667 75.5537 27.6453C76.6252 26.5771 77.2227 25.1284 77.2227 23.6196C77.2227 22.1075 76.6252 20.6588 75.5537 19.5906L73.0167 17.0537C70.7868 14.8305 67.1784 14.8338 64.9519 17.0603C64.034 17.985 62.6186 18.2053 61.4603 17.6044C59.8881 16.7866 58.2491 16.1023 56.56 15.5616C55.3216 15.1643 54.4837 14.0127 54.4904 12.7109C54.4871 9.56642 51.9401 7.01945 48.7956 7.01611H45.2039C42.0594 7.01945 39.5091 9.56975 39.5058 12.7142C39.5125 14.0127 38.6746 15.1677 37.4395 15.5616C35.7504 16.1023 34.1115 16.7833 32.5358 17.6011C31.3742 18.2053 29.9555 17.9817 29.0342 17.0503C26.8077 14.8305 23.2059 14.8305 20.9761 17.0503L18.4391 19.5873C17.3709 20.6555 16.7701 22.1075 16.7701 23.6197C16.7734 25.1352 17.3743 26.584 18.4458 27.6522C19.3737 28.5701 19.5974 29.9888 18.9932 31.1471C18.1754 32.7193 17.4944 34.3616 16.957 36.0507C16.5598 37.2891 15.4048 38.127 14.1063 38.1203C10.9618 38.1237 8.41154 40.6707 8.4082 43.8151V47.4069C8.41154 50.5513 10.9584 53.0983 14.0995 53.1049Z" fill="white"/>
</svg>
