<svg width="123" height="123" viewBox="0 0 123 123" fill="none" xmlns="http://www.w3.org/2000/svg">
<path d="M93.4485 28.234L61.9996 14.9902L30.5508 28.234V58.5211C30.5508 69.5282 35.8883 79.3293 46.4111 87.6631C53.142 92.9919 59.969 95.9927 61.9996 96.827C64.0307 95.997 70.8578 92.9963 77.5882 87.6631C88.1149 79.3292 93.4485 69.5184 93.4485 58.5211V28.234ZM77.9337 49.9949L60.4621 67.4665C59.475 68.4537 58.1559 69.004 56.7582 69.004C56.6621 69.004 56.566 69.004 56.4699 68.9953C54.9848 68.9123 53.5958 68.2003 52.6699 67.0341L45.6812 58.2983C43.8729 56.0445 44.2441 52.7336 46.5024 50.9341C48.7562 49.1257 52.0628 49.4926 53.8666 51.7552L57.195 55.9179L70.526 42.5869C71.5131 41.5998 72.8322 41.0494 74.2299 41.0494C75.6277 41.0494 76.9468 41.5954 77.9339 42.5869C78.9211 43.5741 79.4714 44.8932 79.4714 46.2909C79.4714 47.6886 78.9252 49.0078 77.9337 49.9949Z" fill="#34A853"/>
<path d="M72.2865 44.3477L72.2865 44.3477L57.5756 59.0585C57.4263 59.2078 57.2161 59.2868 57.0124 59.2742L57.0124 59.2741L57.0031 59.2737C56.7911 59.2625 56.6 59.1637 56.469 58.9977L56.469 58.9977L56.4646 58.9922L51.9133 53.3053L51.9111 53.3025C51.3697 52.631 50.5685 52.2749 49.7653 52.2749C49.1669 52.2749 48.5575 52.4667 48.0457 52.8808C46.8667 53.8285 46.6737 55.5568 47.6223 56.7395C47.6224 56.7396 47.6225 56.7397 47.6226 56.7398L54.6095 65.4735C54.6095 65.4736 54.6096 65.4736 54.6097 65.4737C55.0957 66.0829 55.8225 66.4621 56.6048 66.5036L56.6313 66.505H56.6579H56.754C57.475 66.505 58.18 66.2182 58.6972 65.7011L58.6972 65.7011L76.1688 48.2295C76.1688 48.2295 76.1688 48.2295 76.1688 48.2295C76.6898 47.7085 76.9728 47.0168 76.9728 46.2863C76.9728 45.5538 76.6841 44.8583 76.1688 44.343L76.1688 44.343C75.8625 44.0366 75.4664 43.8348 75.1218 43.7102C74.7697 43.5829 74.3714 43.5 74 43.5C73.572 43.5 73.2073 43.6049 72.8814 43.8199C72.66 43.966 72.4615 44.169 72.34 44.2933C72.32 44.3137 72.3021 44.3321 72.2865 44.3477Z" fill="#34A853" stroke="#34A853" stroke-width="2"/>
<path d="M59.2344 106.205C60.1273 106.536 61.066 106.695 61.9954 106.695C62.9301 106.695 63.8622 106.53 64.7522 106.207L64.7527 106.206C65.1855 106.049 74.3557 102.62 83.5421 95.3675C96.0273 85.5104 102.847 73.1344 103.165 59.5213H103.185V58.5213V27.0724C103.185 23.8574 101.258 20.9558 98.2959 19.7122L65.1027 5.73185C65.1023 5.73169 65.1019 5.73152 65.1016 5.73136C64.1087 5.31033 63.0497 5.10645 61.9997 5.10645C60.9405 5.10645 59.8925 5.31648 58.9023 5.72948L58.899 5.73084L25.7027 19.7125C25.7026 19.7125 25.7025 19.7125 25.7024 19.7126C22.7368 20.9609 20.8145 23.862 20.8145 27.0724V58.5213C20.8145 72.5282 27.6586 85.2691 40.4487 95.3675L41.0684 94.5827L40.4488 95.3675C49.6316 102.617 58.803 106.046 59.2344 106.205ZM59.2344 106.205C59.2337 106.205 59.233 106.204 59.2323 106.204L59.5799 105.267L59.2349 106.205C59.2347 106.205 59.2345 106.205 59.2344 106.205ZM62.2617 99.4082L62.3321 99.3826C63.2372 99.0389 71.1059 95.969 79.0641 89.6834L62.2617 99.4082ZM62.2617 99.4082C62.1841 99.4364 62.0906 99.4528 62.0007 99.4528C61.9092 99.4528 61.8212 99.4373 61.7434 99.4096C61.3507 99.2624 53.1974 96.2023 44.9396 89.683C40.0384 85.8136 36.1479 81.54 33.3534 76.9811C29.8343 71.2365 28.0584 65.0311 28.0584 58.5203V27.0714C28.0584 26.7695 28.2371 26.502 28.5127 26.3873L28.5166 26.3857M62.2617 99.4082L28.5166 26.3857M28.5166 26.3857L61.7123 12.4088C61.9027 12.3288 62.107 12.3303 62.2885 12.4074L62.291 12.4084M28.5166 26.3857L62.291 12.4084M62.291 12.4084L95.4876 26.3857L95.4893 26.3864M62.291 12.4084L95.4893 26.3864M95.4893 26.3864C95.7641 26.5015 95.9458 26.7757 95.9458 27.0714M95.4893 26.3864L95.9458 27.0714M95.9458 27.0714V58.5203M95.9458 27.0714V58.5203M95.9458 58.5203C95.9458 65.0301 94.1656 71.2404 90.6506 76.9815M95.9458 58.5203L90.6506 76.9815M90.6506 76.9815C87.8604 81.5352 83.9658 85.8086 79.0644 89.6831L90.6506 76.9815Z" fill="#34A853" stroke="#34A853" stroke-width="2"/>
<path d="M31.2738 90.2715L17.0863 104.459C16.632 104.913 16.4617 105.586 16.6495 106.202C16.8329 106.818 17.3483 107.285 17.9773 107.407L25.5731 108.927L27.0932 116.523C27.2199 117.152 27.6828 117.668 28.2987 117.851C28.4647 117.903 28.635 117.925 28.8054 117.925C29.2596 117.925 29.7095 117.746 30.0415 117.414L45.4903 101.965C43.3719 100.629 41.1399 99.087 38.9079 97.3267C36.0776 95.0947 33.5354 92.7404 31.2729 90.2726L31.2738 90.2715Z" fill="#34A853"/>
<path d="M106.915 104.459L92.7272 90.2715C90.4647 92.735 87.9225 95.0936 85.0922 97.3256C82.8602 99.0859 80.6282 100.628 78.5098 101.964L93.9586 117.413C94.2905 117.745 94.736 117.924 95.1947 117.924C95.3607 117.924 95.5354 117.898 95.7014 117.85C96.3173 117.662 96.7846 117.151 96.9069 116.522L98.427 108.926L106.023 107.406C106.652 107.28 107.167 106.817 107.351 106.201C107.534 105.585 107.368 104.917 106.914 104.458L106.915 104.459Z" fill="#34A853"/>
</svg>
