<svg width="25" height="24" viewBox="0 0 25 24" fill="none" xmlns="http://www.w3.org/2000/svg">
<g clip-path="url(#clip0_185_261)">
<path d="M15.6325 5C16.6092 5.19057 17.5068 5.66826 18.2105 6.37194C18.9142 7.07561 19.3919 7.97326 19.5825 8.95M15.6325 1C17.6617 1.22544 19.554 2.13417 20.9987 3.57701C22.4433 5.01984 23.3545 6.91101 23.5825 8.94M22.5825 16.92V19.92C22.5836 20.1985 22.5265 20.4742 22.415 20.7293C22.3034 20.9845 22.1398 21.2136 21.9345 21.4019C21.7293 21.5901 21.487 21.7335 21.2232 21.8227C20.9594 21.9119 20.6798 21.9451 20.4025 21.92C17.3253 21.5856 14.3695 20.5341 11.7725 18.85C9.35628 17.3147 7.30779 15.2662 5.77245 12.85C4.08243 10.2412 3.0307 7.27099 2.70245 4.18C2.67746 3.90347 2.71033 3.62476 2.79895 3.36162C2.88758 3.09849 3.03002 2.85669 3.21722 2.65162C3.40441 2.44655 3.63226 2.28271 3.88624 2.17052C4.14023 2.05833 4.41479 2.00026 4.69245 2H7.69245C8.17776 1.99522 8.64824 2.16708 9.01621 2.48353C9.38418 2.79999 9.62453 3.23945 9.69245 3.72C9.81908 4.68007 10.0539 5.62273 10.3925 6.53C10.527 6.88792 10.5561 7.27691 10.4764 7.65088C10.3966 8.02485 10.2113 8.36811 9.94245 8.64L8.67245 9.91C10.096 12.4135 12.1689 14.4864 14.6725 15.91L15.9425 14.64C16.2143 14.3711 16.5576 14.1858 16.9316 14.1061C17.3055 14.0263 17.6945 14.0555 18.0525 14.19C18.9597 14.5286 19.9024 14.7634 20.8625 14.89C21.3482 14.9585 21.7919 15.2032 22.109 15.5775C22.4261 15.9518 22.5946 16.4296 22.5825 16.92Z" stroke="#34A853" stroke-width="2" stroke-linecap="round" stroke-linejoin="round"/>
</g>
<defs>
<clipPath id="clip0_185_261">
<rect width="24" height="24" fill="white" transform="translate(0.582031)"/>
</clipPath>
</defs>
</svg>
