<svg width="168" height="168" viewBox="0 0 168 168" fill="none" xmlns="http://www.w3.org/2000/svg">
<circle cx="84" cy="84" r="84" fill="#E5F2FF"/>
<path d="M129.984 90.2495C129.984 89.8901 129.793 89.5581 129.473 89.3784L110.051 78.4374C111.172 75.4257 111.781 72.1757 111.781 68.789C111.781 53.461 99.3122 41 83.9922 41C68.6722 41 56.2032 53.469 56.2032 68.789C56.2032 72.1796 56.8126 75.4296 57.9337 78.4374L38.5117 89.3784C38.2031 89.5581 38 89.8901 38 90.2495C38 90.6089 38.1914 90.9409 38.5117 91.1206L46.4414 95.5815L38.5117 100.042C38.2031 100.222 38 100.554 38 100.913C38 101.273 38.1914 101.605 38.5117 101.785L83.5117 127.137C83.6602 127.226 83.832 127.265 84 127.265C84.1719 127.265 84.3398 127.226 84.4883 127.137L129.488 101.785C129.797 101.605 130 101.273 130 100.913C130 100.554 129.809 100.222 129.488 100.042L121.559 95.5815L129.488 91.1206C129.797 90.9409 130 90.6089 130 90.2495H129.984ZM83.9844 125.116L41.0234 100.917L48.4531 96.7261L83.4921 116.464C83.6406 116.554 83.8125 116.593 83.9804 116.593C84.1523 116.593 84.3203 116.554 84.4687 116.464L119.508 96.7261L126.937 100.917L83.9764 125.116H83.9844ZM83.9844 114.448L41.0234 90.2495L58.6954 80.3003C63.0743 89.9019 72.7654 96.5893 83.9844 96.5893C95.2034 96.5893 104.894 89.8979 109.273 80.3003L126.945 90.2495L83.9844 114.448ZM83.9844 42.9875C98.2034 42.9875 109.773 54.5575 109.773 68.7765C109.773 82.9955 98.2034 94.5655 83.9844 94.5655C69.7654 94.5655 58.1954 82.9955 58.1954 68.7765C58.1954 54.5575 69.7654 42.9875 83.9844 42.9875Z" fill="#242C56"/>
<path d="M71.4635 76.5195C72.1627 80.5703 74.9323 84.0586 79.6823 86.8905C79.7018 86.9022 79.7213 86.9218 79.7409 86.9296C79.7917 86.9608 79.8424 86.9686 79.8893 86.9882C79.9206 86.9999 79.9401 87.0194 79.9674 87.0194C80.0573 87.0507 80.1471 87.0585 80.237 87.0585H80.2878C80.4362 87.0585 95.1398 86.1483 96.6078 70.8675C97.5492 61.0589 86.0768 51.1565 85.5878 50.7465C85.3378 50.5355 85.0096 50.4574 84.6971 50.5355C84.3885 50.6137 84.1268 50.8363 84.0057 51.1449C83.9862 51.1957 81.8963 56.4144 75.326 64.3049C73.8377 66.094 70.4744 70.8635 71.4471 76.5159L71.4635 76.5195ZM94.6315 70.6797C93.6315 81.0317 86.0417 83.9417 82.2795 84.7497C88.76 74.0387 87.799 63.2807 87.76 62.8007C87.7092 62.2499 87.2287 61.8515 86.6702 61.9023C86.1194 61.953 85.721 62.4413 85.7717 62.9921C85.7835 63.1014 86.7717 74.2031 79.9631 84.6831C76.2014 82.2612 73.9943 79.4019 73.4319 76.1636C72.6038 71.3355 75.5608 67.1519 76.8733 65.5736C81.803 59.6634 84.2717 55.2456 85.2952 53.1636C88.0061 55.7534 95.3262 63.4726 94.635 70.6636L94.6315 70.6797Z" fill="#242C56"/>
</svg>
