<svg width="168" height="168" viewBox="0 0 168 168" fill="none" xmlns="http://www.w3.org/2000/svg">
<circle cx="84" cy="84" r="84" fill="#E5F2FF"/>
<path d="M66.7374 102.75C66.7765 103.41 66.2765 103.969 65.6163 104.012H65.5382C64.9171 104.012 64.3898 103.524 64.3468 102.891L61.9366 64.4108C61.8975 63.7506 62.3975 63.192 63.0577 63.1491C63.7178 63.11 64.2765 63.61 64.3194 64.2702L66.7374 102.75ZM78.0574 63.1482C77.3973 63.1482 76.866 63.6794 76.866 64.3396V102.82C76.866 103.48 77.3973 104.011 78.0574 104.011C78.7176 104.011 79.2488 103.48 79.2488 102.82V64.3396C79.2488 63.6912 78.7176 63.1482 78.0574 63.1482ZM90.4984 104.011H90.5765C91.1976 104.011 91.7249 103.523 91.7679 102.89L94.1781 64.4101C94.2172 63.7499 93.7172 63.1913 93.057 63.1484C92.3969 63.1093 91.8382 63.6093 91.7953 64.2695L89.3851 102.749C89.3383 103.398 89.8382 103.968 90.4984 104.011ZM124.447 109.921L108.459 130.87C107.971 131.519 107.241 131.882 106.428 131.882C105.62 131.882 104.889 131.523 104.397 130.87L92.049 114.679H55.209C54.5879 114.679 54.0801 114.211 54.0176 113.59L48.916 54.8706H45.4941C44.1738 54.8706 43.1035 53.8003 43.1035 52.48V49.1792C43.1035 46.0386 45.6543 43.4878 48.7949 43.4878H64.9239L64.9278 37.3081C64.9278 36.6479 65.4591 36.1167 66.1192 36.1167L89.9982 36.1206C90.6584 36.1206 91.1896 36.6519 91.1896 37.312V43.4839H107.319C110.459 43.4839 113.01 46.0347 113.01 49.1753V52.4761C113.01 53.7964 111.94 54.8667 110.619 54.8667L107.198 54.8589L105.127 78.7299H112.979C114.248 78.7299 115.287 79.769 115.287 81.0385V106.597H122.807C123.596 106.597 124.307 107.039 124.659 107.746C125.01 108.461 124.928 109.289 124.447 109.921ZM67.3184 43.4804H88.8064V38.5116H67.3184V43.4804ZM110.619 52.4804L110.631 49.1718C110.631 47.3515 109.151 45.8632 107.323 45.8632L48.8065 45.8593C46.9862 45.8593 45.4979 47.3398 45.4979 49.1679V52.4687L110.619 52.4804ZM90.2284 112.3L88.4198 109.922C87.9393 109.293 87.8612 108.461 88.2089 107.761C88.5604 107.05 89.2675 106.613 90.0605 106.613H97.58L97.5761 81.0509C97.5761 79.7814 98.6152 78.7423 99.8847 78.7423H102.744L104.814 54.8713H51.3064L56.2986 112.301L90.2284 112.3ZM122.158 108.988H114.1C113.44 108.988 112.908 108.457 112.908 107.797V81.1205H99.9594V107.8C99.9594 108.461 99.4282 108.992 98.768 108.992H90.7094L106.299 129.422C106.338 129.473 106.37 129.492 106.44 129.492C106.51 129.492 106.542 129.48 106.581 129.422L122.158 108.988Z" fill="#242C56"/>
</svg>
