<svg width="110" height="110" viewBox="0 0 110 110" fill="none" xmlns="http://www.w3.org/2000/svg">
<path d="M54.9449 51.6862L56.652 53.3934L64.7817 61.523C64.7978 61.5391 64.8143 61.5451 64.8305 61.5459C64.8467 61.5467 64.8634 61.5424 64.8805 61.5284L64.8812 61.5278L73.9276 54.1395C73.9642 54.1096 73.9642 54.0556 73.9291 54.0256L73.9286 54.0252L50.7724 34.2231C43.0755 37.0548 35.5956 37.0548 27.8997 34.2231L4.7439 54.0249L54.9449 51.6862ZM54.9449 51.6862V54.1005M54.9449 51.6862V54.1005M54.9449 54.1005V88.2532C54.9449 88.2724 54.9382 88.29 54.9226 88.3056C54.907 88.3212 54.8894 88.328 54.8701 88.328H23.802C23.7835 88.328 23.7658 88.3214 23.7498 88.3054C23.7337 88.2893 23.7272 88.2715 23.7272 88.2532V54.1005V51.6862L22.0201 53.3934L13.8904 61.523C13.8743 61.5391 13.8578 61.5451 13.8416 61.5459C13.8255 61.5467 13.8088 61.5424 13.7916 61.5284L13.7909 61.5278M54.9449 54.1005L13.7909 61.5278M13.7909 61.5278L4.74543 54.1402C4.7453 54.1401 4.74516 54.14 4.74503 54.1399M13.7909 61.5278L4.74503 54.1399M4.74503 54.1399C4.70897 54.1099 4.7089 54.0552 4.74359 54.0252L4.74503 54.1399ZM85.2048 25.4027L84.5885 24.9204L83.9722 25.4027L74.9315 32.4777H72.617L83.4849 23.9722L83.8686 23.6719V23.1847V22.0343V21.2826L83.1464 21.0737C80.9399 20.4354 79.4113 18.4071 79.4113 16.1C79.4113 13.2412 81.7296 10.9229 84.5885 10.9229C87.4473 10.9229 89.7657 13.2412 89.7657 16.1C89.7657 16.4977 89.4434 16.8199 89.0458 16.8199C88.6481 16.8199 88.3259 16.4977 88.3259 16.1C88.3259 14.0353 86.6533 12.3626 84.5885 12.3626C82.5237 12.3626 80.8511 14.0353 80.8511 16.1C80.8511 18.1648 82.5237 19.8374 84.5885 19.8374C84.9861 19.8374 85.3084 20.1597 85.3084 20.5573V23.1847V23.6719L85.692 23.9722L96.56 32.4777H94.2454L85.2048 25.4027ZM39.9524 25.4027L39.3361 24.9204L38.7198 25.4027L32.773 30.0569C32.2118 29.9126 31.6484 29.7499 31.0823 29.5685L38.2324 23.9734L38.6162 23.6731V23.1859V22.0355V21.2837L37.894 21.0748C35.6875 20.4366 34.1589 18.4082 34.1589 16.1012C34.1589 13.2423 36.4772 10.924 39.3361 10.924C42.1949 10.924 44.5133 13.2423 44.5133 16.1012C44.5133 16.4988 44.191 16.8211 43.7934 16.8211C43.3958 16.8211 43.0735 16.4988 43.0735 16.1012C43.0735 14.0361 41.3994 12.3638 39.3361 12.3638C37.2724 12.3638 35.5987 14.0375 35.5987 16.1012C35.5987 18.1662 37.2727 19.8386 39.3361 19.8386C39.7337 19.8386 40.056 20.1609 40.056 20.5585V23.1859V23.6731L40.4397 23.9734L47.5895 29.5683C47.0235 29.7497 46.4601 29.9126 45.8992 30.0568L39.9524 25.4027ZM86.8088 57.1043L86.8037 57.0758L86.7969 57.0476C86.2383 54.7353 82.9409 54.7393 82.3814 57.0468L82.3745 57.0754L82.3693 57.1043L74.7722 99.0747H63.9814L66.6524 66.6752C67.2446 66.4688 67.8108 66.1581 68.3215 65.7406L77.3674 58.3526C77.3675 58.3526 77.3675 58.3526 77.3675 58.3526C80.0181 56.1881 80.0644 52.1163 77.4628 49.8927C77.4627 49.8926 77.4626 49.8925 77.4625 49.8924L68.6574 42.3624L69.0242 37.9175H100.154L105.197 99.0747H94.4059L86.8088 57.1043Z" stroke="white" stroke-width="2"/>
</svg>
