<svg width="110" height="110" viewBox="0 0 110 110" fill="none" xmlns="http://www.w3.org/2000/svg">
<path d="M80.75 33.4999L80.75 32.5H79.75H48.5H47.5V33.5V92.875V93.875H48.5H51.625C52.7993 93.875 53.75 94.8257 53.75 96C53.75 97.1743 52.7993 98.125 51.625 98.125H23.5C22.3257 98.125 21.375 97.1743 21.375 96C21.375 94.8257 22.3257 93.875 23.5 93.875H26.625H27.625V92.875V46V45H26.625H20.375C18.1521 45 16.0236 44.1172 14.4532 42.5468L13.7461 43.2539L14.4532 42.5468C12.8828 40.9763 12 38.8478 12 36.625V24.125C12 21.9021 12.8828 19.7736 14.4532 18.2032L14.4532 18.2032C16.0236 16.6328 18.1521 15.75 20.375 15.75H23.5C25.7229 15.75 27.8514 16.6327 29.4218 18.2032L30.1289 17.4961L29.4218 18.2032C30.9922 19.7736 31.875 21.9021 31.875 24.125V27.25V28.25H32.875H34.4375H35.4375V27.25V20.375C35.4375 17.6709 36.7422 15.1341 38.9443 13.56C41.1473 11.9891 43.9702 11.5746 46.5265 12.4534L46.5273 12.4537L92.4493 28.1957L92.607 28.2498H92.7736H95.3752C96.5495 28.2498 97.5002 29.2005 97.5002 30.3748C97.5002 31.5491 96.5495 32.4998 95.3752 32.4998H92.1877H86.0002H85.0002V33.4998V38.7498H80.7502L80.75 33.4999ZM39.688 27.2501L39.6881 28.25H40.688H73.5L73.8243 26.304L45.1495 16.4724C43.8875 16.038 42.5002 16.2465 41.4165 17.017L41.4147 17.0183C40.3315 17.792 39.6873 19.0444 39.6873 20.375V20.3751L39.688 27.2501ZM89.126 47C93.7534 47 97.501 50.7476 97.501 55.375V61.625C97.501 66.2524 93.7534 70 89.126 70H76.626C71.9986 70 68.251 66.2524 68.251 61.625V55.375C68.251 50.7476 71.9986 47 76.626 47H89.126Z" stroke="white" stroke-width="2"/>
</svg>
