<svg width="110" height="110" viewBox="0 0 110 110" fill="none" xmlns="http://www.w3.org/2000/svg">
<path d="M45.1256 23.1875V42.0915C45.0101 42.0914 44.8854 42.0914 44.752 42.0913C43.801 42.0907 42.4061 42.0904 40.7137 42.0902C37.3288 42.0899 32.7531 42.0901 28.1566 42.0906C23.5602 42.0911 18.9429 42.0918 15.4747 42.0924L11.2805 42.0932L10.6876 42.0933V23.1875C10.6876 21.1929 12.3024 19.5781 14.297 19.5781H41.516C43.5107 19.5781 45.1256 21.193 45.1256 23.1875Z" stroke="white" stroke-width="2"/>
<path d="M45.1254 47.8282H34.4844V47.2188L45.1254 47.2188V47.8282Z" stroke="white" stroke-width="2"/>
<path d="M33.6085 52.9531L33.6085 52.9527C34.5483 52.9511 36.6264 52.9523 38.8492 52.9536C41.153 52.9549 43.6121 52.9564 45.12 52.9548V82.2027C45.12 84.184 43.503 85.8121 41.5106 85.8121H41.3387H40.3387V86.8121V89.8552C40.3387 90.1661 40.0872 90.4177 39.7762 90.4177C39.4652 90.4177 39.2137 90.1661 39.2137 89.8552V86.8121V85.8121H38.2137H17.5967H16.5967V86.8121V89.8442C16.5904 90.0883 16.5062 90.2013 16.437 90.2622C16.35 90.3387 16.2088 90.3966 16.0367 90.3962C15.8646 90.3957 15.7213 90.337 15.6321 90.2585C15.5607 90.1955 15.478 90.0822 15.4717 89.8441V86.8121V85.7755L14.4358 85.8128C12.3943 85.8862 10.6835 84.2324 10.6865 82.2043V82.2027V47.2188H29.3585V48.7188C29.3585 51.0586 31.2813 52.9531 33.6085 52.9531Z" stroke="white" stroke-width="2"/>
<path d="M66.2355 57.7969H66.245L66.2545 57.7967C67.0366 57.7818 67.6923 57.469 68.1427 56.9551C68.5779 56.4586 68.7754 55.8286 68.775 55.2294C68.7746 54.6302 68.5764 54.0004 68.1398 53.505C67.6877 52.9921 67.0306 52.6824 66.2488 52.672L66.2488 52.6719H66.2355H61.9543C60.5491 52.6719 59.3918 53.8006 59.3918 55.2344C59.3918 56.6461 60.5426 57.7969 61.9543 57.7969H66.2355ZM78.1264 57.7969H78.134L78.1416 57.7968C78.9259 57.7849 79.5837 57.4726 80.0355 56.9578C80.4718 56.4606 80.6693 55.8293 80.6689 55.2294C80.6686 54.6296 80.4703 53.9984 80.0326 53.5024C79.5792 52.9886 78.92 52.6794 78.136 52.6719L78.136 52.6719H78.1264H75.5171V52.6718L75.5038 52.672C74.7215 52.6824 74.0638 52.9917 73.6113 53.5047C73.1742 54.0003 72.976 54.6305 72.976 55.23C72.976 55.8295 73.1742 56.4593 73.6097 56.9556C74.0603 57.4691 74.716 57.7819 75.498 57.7967L75.5075 57.7969H75.5171H78.1264ZM86.0327 57.7969H86.0402L86.0478 57.7968C86.8321 57.7849 87.4899 57.4726 87.9417 56.9578C88.378 56.4606 88.5755 55.8293 88.5751 55.2294C88.5748 54.6296 88.3765 53.9984 87.9388 53.5024C87.4854 52.9886 86.8262 52.6794 86.0422 52.6719L86.0422 52.6719H86.0327H83.4232V52.6718L83.41 52.672C82.6277 52.6824 81.97 52.9917 81.5175 53.5047C81.0804 54.0003 80.8822 54.6305 80.8822 55.23C80.8822 55.8295 81.0804 56.4593 81.5159 56.9556C81.9665 57.4691 82.6222 57.7819 83.4042 57.7967L83.4137 57.7969H83.4232H86.0327ZM57.9384 50.25H89.3914C90.9487 50.25 92.2044 51.5055 92.2044 53.0625V58.6719H55.1104V53.0625C55.1104 51.5107 56.376 50.25 57.9384 50.25Z" stroke="white" stroke-width="2"/>
<path d="M91.9367 63.7881C92.03 63.7883 92.1187 63.7885 92.2026 63.7888V87.6091C92.2026 89.1532 90.9445 90.4216 89.3901 90.4216H57.9371C56.3774 90.4216 55.109 89.1479 55.109 87.6091V63.7964L55.8489 63.7958L60.4218 63.7927C64.2 63.7903 69.2225 63.7873 74.1996 63.7854C79.1769 63.7834 84.1085 63.7824 87.7052 63.7839C89.5036 63.7846 90.9677 63.786 91.9367 63.7881ZM84.8892 76.6163L84.89 76.5972V76.578C84.89 70.3855 79.8489 65.344 73.656 65.344C67.4609 65.344 62.437 70.387 62.437 76.578V76.5969L62.4377 76.6157C62.9989 91.4803 84.3213 91.43 84.8892 76.6163Z" stroke="white" stroke-width="2"/>
<path d="M73.6563 82.6877C65.6116 82.3986 65.6208 70.7581 73.6565 70.4698C81.7085 70.7514 81.7256 82.4021 73.6563 82.6877Z" stroke="white" stroke-width="2"/>
<path d="M93.8436 33.7811H93.8531L93.8626 33.7809C94.6435 33.7661 95.299 33.4549 95.7498 32.9422C96.1857 32.4465 96.3836 31.8171 96.3832 31.218C96.3828 30.6189 96.1842 29.99 95.7486 29.4949C95.298 28.9827 94.643 28.6712 93.8627 28.6563L93.8531 28.6561H93.8436H85.5311H85.5235L85.516 28.6562C84.733 28.6681 84.0753 28.9787 83.6231 29.4924C83.1862 29.9888 82.9883 30.6195 82.9886 31.2192C82.989 31.819 83.1877 32.4491 83.6243 32.9449C84.0763 33.4581 84.7334 33.7691 85.5159 33.781L85.5235 33.7811H85.5311H93.8436ZM52.922 19.5781H97.578C98.5377 19.5781 99.3126 20.3612 99.3126 21.3125V33.9215H51.1876V21.3125C51.1876 20.3648 51.9743 19.5781 52.922 19.5781Z" stroke="white" stroke-width="2"/>
<path d="M53.5924 42.3595L52.2057 39.0469H98.2937L96.9084 42.3561C96.9079 42.3573 96.9074 42.3584 96.9069 42.3596C96.5954 43.0828 95.8804 43.5625 95.062 43.5625H55.453C54.6161 43.5625 53.9029 43.0801 53.5924 42.3595Z" stroke="white" stroke-width="2"/>
</svg>
