<svg width="110" height="110" viewBox="0 0 110 110" fill="none" xmlns="http://www.w3.org/2000/svg">
<path d="M69.9614 64.4513L69.9617 64.4523C70.16 65.3263 70.1557 66.2344 69.9492 67.1065C69.8446 67.5481 69.6896 67.9746 69.4881 68.3778C70.3712 68.8421 71.1434 69.5033 71.7419 70.3169C72.6001 71.4835 73.0542 72.8997 73.0356 74.3491C73.0169 75.7985 72.5266 77.2025 71.6387 78.3466C71.0226 79.1404 70.2386 79.7789 69.3494 80.2199C69.8517 81.2125 70.1168 82.3155 70.1154 83.4406M69.9614 64.4513L68.4185 80.5964C68.875 81.4685 69.1166 82.4437 69.1154 83.4393V85.0796C69.1152 85.3372 69.0987 85.5945 69.0659 85.8501C69.0415 86.0394 68.9757 86.221 68.8731 86.3819C68.7706 86.5427 68.634 86.6787 68.473 86.7803C68.2732 86.9076 68.0841 87.0436 67.9058 87.1838M69.9614 64.4513C67.324 52.8811 56.5737 43.9394 43.0986 41.5839L42.5493 36.1317M69.9614 64.4513L42.5493 36.1317M70.1154 83.4406L69.1168 83.4393H70.1154V83.4406ZM70.1154 83.4406V85.0796V85.0803C70.1151 85.3802 70.0959 85.6797 70.0578 85.977L70.0577 85.9781C70.0145 86.313 69.898 86.6345 69.7164 86.9194C69.5795 87.1341 69.4082 87.3241 69.2097 87.4818M69.2097 87.4818C69.0732 87.2001 68.9218 86.9246 68.7556 86.6567L68.4966 86.8173L68.4731 86.7804L68.4964 86.8174L67.9058 87.1838M69.2097 87.4818C69.1454 87.5329 69.0783 87.5807 69.0085 87.6248C68.8403 87.7321 68.6788 87.8481 68.5241 87.9698L67.9058 87.1838M69.2097 87.4818C69.928 88.9647 70.2307 90.6227 70.076 92.2759C69.9569 93.549 69.5708 94.7741 68.9516 95.8743M67.9058 87.1838C68.8315 88.6761 69.2441 90.4322 69.0804 92.1828C68.9563 93.5086 68.5068 94.7758 67.7805 95.8743H68.9516M68.9516 95.8743C68.7566 96.2208 68.5384 96.555 68.2982 96.8743H81.5741C88.4363 96.8743 94.28 92.2578 94.8751 86.3616M68.9516 95.8743H81.5741C88.0463 95.8743 93.3481 91.5325 93.8802 86.2612L94.8751 86.3616M94.8751 86.3616L93.8802 86.2611M94.8751 86.3616L99.9413 36.1317H98.9362M93.8802 86.2611L99.037 35.1317L98.9362 36.1317M93.8802 86.2611L98.9362 36.1317M93.8802 86.2611L42.5493 36.1317M98.9362 36.1317H42.5493" stroke="white" stroke-width="2"/>
<path d="M97.8738 18.1523L97.874 18.153L98.7934 24.1584H42.6854L43.6048 18.1531C43.6048 18.1531 43.6048 18.1531 43.6048 18.153C43.7752 17.0411 44.201 16.1269 44.73 15.5107C45.2594 14.8939 45.8448 14.6205 46.3782 14.6205H95.1027C95.6361 14.6205 96.2215 14.8939 96.7505 15.5105C97.2792 16.1266 97.7045 17.0406 97.8738 18.1523Z" stroke="white" stroke-width="2"/>
<path d="M36.4479 28.7482H105.032C105.399 28.7482 105.752 28.8946 106.013 29.1566C106.274 29.4188 106.422 29.7754 106.422 30.1481C106.422 30.5209 106.274 30.8774 106.013 31.1396C105.752 31.4017 105.399 31.5481 105.032 31.5481H36.4479C36.081 31.5481 35.7281 31.4017 35.4673 31.1396C35.2063 30.8774 35.0588 30.5209 35.0588 30.1481C35.0588 29.7754 35.2063 29.4188 35.4673 29.1566C35.7281 28.8946 36.081 28.7482 36.4479 28.7482Z" stroke="white" stroke-width="2"/>
<path d="M10.8165 86.2838C9.75307 87.3046 9.2353 87.7557 8.0558 87.7557C7.68559 87.7664 7.31696 87.703 6.97135 87.5693C6.62575 87.4355 6.31008 87.234 6.04272 86.9766M10.8165 86.2838L10.8168 86.2836C12.0113 85.1354 13.8074 83.409 17.0921 83.409C20.3771 83.409 22.1796 85.1356 23.3656 86.2816C24.4398 87.3046 24.9511 87.7557 26.1306 87.7557C27.3617 87.7557 27.9052 87.2334 28.8935 86.2838M10.8165 86.2838L10.1236 85.5628L10.124 85.5623M10.8165 86.2838L10.124 85.5623M28.8935 86.2838C30.0837 85.1378 31.8798 83.409 35.1691 83.409C38.4583 83.409 40.2566 85.1356 41.4425 86.2816M28.8935 86.2838L28.2006 85.5627L28.2154 85.5484C29.4311 84.3779 31.4758 82.409 35.1691 82.409C38.8741 82.409 40.9219 84.3879 42.1339 85.5591L42.1346 85.5598M28.8935 86.2838L28.1999 85.5634L28.2003 85.5631C27.6814 86.0617 27.3841 86.3401 27.0866 86.5195C26.842 86.6671 26.5797 86.7557 26.1306 86.7557C25.6932 86.7557 25.4503 86.6782 25.2152 86.5401C24.9246 86.3693 24.6141 86.0896 24.0578 85.5599M41.4425 86.2816L41.4452 86.2842C42.4361 87.2343 42.9798 87.7557 44.2097 87.7557C45.3892 87.7557 45.907 87.3046 46.9705 86.2838M41.4425 86.2816L42.1346 85.5598M41.4425 86.2816L42.1374 85.5625L42.1346 85.5598M46.9705 86.2838L46.9707 86.2836C48.1652 85.1354 49.9613 83.409 53.2482 83.409C56.5347 83.409 58.3307 85.1349 59.5188 86.2766L59.5195 86.2773M46.9705 86.2838L46.278 85.5623M46.9705 86.2838L46.2775 85.5628L46.278 85.5623M59.5195 86.2773C60.5937 87.3046 61.1072 87.7557 62.2867 87.7557C63.5177 87.7557 64.0613 87.2334 65.0496 86.2838M59.5195 86.2773L60.2106 85.5546M59.5195 86.2773L60.2124 85.5563L60.2106 85.5546M65.0496 86.2838C65.515 85.8209 66.0094 85.3884 66.5298 84.9888M65.0496 86.2838L64.3567 85.5627C64.3546 85.5647 64.3526 85.5666 64.3505 85.5686M65.0496 86.2838L64.3444 85.5747C64.3465 85.5727 64.3485 85.5706 64.3505 85.5686M66.5298 84.9888V83.4522C66.5301 82.9874 66.4393 82.527 66.2624 82.0975C66.0856 81.668 65.8263 81.2776 65.4994 80.9487C65.1724 80.6199 64.7841 80.3589 64.3567 80.1808C63.9294 80.0026 63.4712 79.9108 63.0085 79.9105H9.0226C8.08887 79.9105 7.19332 80.2828 6.53267 80.9457C5.87202 81.6085 5.5003 82.5077 5.49916 83.4457M66.5298 84.9888L65.9209 84.1956C65.7889 84.2969 65.6586 84.4002 65.5298 84.5054M66.5298 84.9888H65.5298V84.5054M5.49916 83.4457V85.0859C5.49702 85.7553 5.68563 86.4114 6.04272 86.9766M5.49916 83.4457L6.49916 83.4469C6.49916 83.4467 6.49916 83.4466 6.49916 83.4464M5.49916 83.4457H6.49916V83.4464M6.04272 86.9766L6.88812 86.4424C6.86588 86.4072 6.84456 86.3715 6.82415 86.3354M6.04272 86.9766L6.73636 86.2562C6.7648 86.2836 6.79408 86.31 6.82415 86.3354M6.82415 86.3354C6.97577 86.4633 7.14746 86.5651 7.33229 86.6367C7.55377 86.7224 7.78987 86.7629 8.02691 86.7561L8.04135 86.7557H8.0558C8.4938 86.7557 8.73842 86.678 8.97375 86.54C9.26343 86.3701 9.57355 86.0908 10.124 85.5623M6.82415 86.3354C6.61025 85.9564 6.49776 85.5269 6.49916 85.0891H6.49916V85.0859V83.4464M10.124 85.5623L10.1403 85.5467C11.3598 84.3745 13.4045 82.409 17.0921 82.409C20.7935 82.409 22.8456 84.3885 24.0578 85.5599M24.0578 85.5599C24.0587 85.5608 24.0596 85.5616 24.0605 85.5625L23.3656 86.2816L24.0552 85.5574C24.0561 85.5583 24.0569 85.5591 24.0578 85.5599ZM6.49916 83.4464C6.50012 82.7721 6.76743 82.1267 7.24095 81.6516C7.71445 81.1765 8.35534 80.9105 9.0226 80.9105H63.0082M63.0082 80.9105C63.3389 80.9108 63.6663 80.9764 63.972 81.1038C64.2778 81.2312 64.5558 81.4181 64.7902 81.6538C65.0246 81.8896 65.2107 82.1696 65.3377 82.4781C65.4647 82.7867 65.53 83.1175 65.5298 83.4516V83.4522V84.5054M63.0082 80.9105H63.0085V79.9136L63.0079 80.9105C63.008 80.9105 63.0081 80.9105 63.0082 80.9105ZM65.5298 84.5054C65.1199 84.8404 64.7264 85.1953 64.3505 85.5686M64.3505 85.5686C63.8352 86.0637 63.5391 86.3408 63.2427 86.5195C62.9981 86.6671 62.7357 86.7557 62.2867 86.7557C61.8492 86.7557 61.606 86.6782 61.3705 86.5398C61.0795 86.3686 60.7678 86.0874 60.2106 85.5546M60.2106 85.5546L60.1955 85.5401C58.982 84.3738 56.9375 82.409 53.2482 82.409C49.5584 82.409 47.5138 84.3744 46.2941 85.5468L46.278 85.5623M46.278 85.5623C45.7275 86.0908 45.4173 86.3701 45.1277 86.54C44.8923 86.678 44.6477 86.7557 44.2097 86.7557C43.7608 86.7557 43.4984 86.6671 43.2531 86.5192C42.9546 86.3392 42.6562 86.0599 42.1346 85.5598" stroke="white" stroke-width="2"/>
<path d="M65.2186 66.5875L65.2087 66.5992L65.1991 66.6113C64.7293 67.2031 63.8423 67.6316 62.7704 67.6316H9.25711C8.19512 67.6316 7.29772 67.1995 6.82688 66.6094L6.81804 66.5983L6.8089 66.5875C6.68054 66.4356 6.58858 66.2557 6.5405 66.0617C6.49276 65.869 6.48964 65.6679 6.53138 65.4738C9.1459 54.0693 21.4295 45.5781 36.0138 45.5781C50.5991 45.5781 62.8945 54.0702 65.4961 65.4735C65.5379 65.6677 65.5348 65.8689 65.487 66.0617C65.4389 66.2557 65.347 66.4356 65.2186 66.5875Z" stroke="white" stroke-width="2"/>
<path d="M49.4376 88.8917L49.4447 88.8849L49.4517 88.8779L49.4621 88.8673C50.5417 87.8233 51.4257 86.9969 53.2482 86.9969C55.0758 86.9969 55.9492 87.8153 57.0515 88.8758L57.0737 88.8972C58.2021 89.983 59.6122 91.3398 62.2752 91.3436C63.3871 91.3672 64.4764 91.0964 65.4384 90.5703C65.5106 90.9224 65.5404 91.2834 65.526 91.6455C65.4958 92.4056 65.272 93.145 64.8764 93.7928C64.4809 94.4407 63.9268 94.9753 63.2677 95.346C62.6086 95.7166 61.8662 95.9111 61.1114 95.9111H10.9092C10.9091 95.9111 10.909 95.9111 10.9089 95.9111C10.2197 95.9108 9.53991 95.7484 8.92401 95.4366C8.308 95.1248 7.77282 94.6721 7.36163 94.1145C6.95043 93.5569 6.67474 92.91 6.55698 92.2255C6.49878 91.8871 6.47997 91.5444 6.50012 91.204C7.00875 91.3246 7.53188 91.3821 8.05773 91.3738C10.7215 91.371 12.1272 90.022 13.26 88.9299L13.2782 88.9139L13.2957 88.897C14.3766 87.8494 15.2495 87.0207 17.0857 87.0207C18.9247 87.0207 19.8046 87.8461 20.9055 88.901L20.9371 88.9312C22.0621 90.0094 23.47 91.3587 26.1306 91.3587C28.7795 91.3587 30.1899 90.0138 31.3224 88.9339C31.3386 88.9184 31.3548 88.903 31.3709 88.8877L31.3709 88.8877L31.3769 88.8819C32.4567 87.8354 33.3386 87.0056 35.1691 87.0056C37.0005 87.0056 37.8671 87.823 38.9731 88.8851L38.993 88.9042C40.1254 89.9917 41.5421 91.3523 44.2097 91.3523C46.8903 91.3523 48.3003 89.9903 49.4358 88.8935L49.4376 88.8917Z" stroke="white" stroke-width="2"/>
<path d="M5.61126 72.2214H66.412C66.951 72.2214 67.4689 72.4365 67.8514 72.8208C68.2341 73.2052 68.4499 73.7276 68.4499 74.2732C68.4499 74.8188 68.2341 75.3411 67.8514 75.7256C67.4689 76.1098 66.951 76.3249 66.412 76.3249H5.61126C5.07224 76.3249 4.55439 76.1098 4.17185 75.7256C3.78917 75.3411 3.57336 74.8188 3.57336 74.2732C3.57336 73.7276 3.78917 73.2052 4.17185 72.8208C4.55439 72.4365 5.07224 72.2214 5.61126 72.2214Z" stroke="white" stroke-width="2"/>
</svg>
