<svg width="110" height="110" viewBox="0 0 110 110" fill="none" xmlns="http://www.w3.org/2000/svg">
<path d="M57.513 26.5077L51.3974 13.4571L51.3972 13.4566C51.3226 13.2977 51.3895 13.1079 51.5531 13.0315L51.555 13.0306C51.7139 12.956 51.9037 13.023 51.9801 13.1866L51.9808 13.1881L58.106 26.2522C58.0278 26.2795 57.9503 26.3088 57.8734 26.3401L57.8151 26.3639L57.7602 26.3947C57.6915 26.4334 57.6153 26.4686 57.5281 26.502L57.513 26.5077ZM17.5804 39.8603V33.602C17.5851 33.2233 17.8908 32.9209 18.2652 32.9186C18.2657 32.9186 18.2661 32.9186 18.2666 32.9186L44.1244 32.9151L45.0167 32.9186C45.3917 32.9201 45.6983 33.2227 45.703 33.602V39.8604C45.6983 40.2391 45.3926 40.5415 45.0182 40.5438H18.2651C17.8908 40.5415 17.5851 40.2391 17.5804 39.8603ZM69.4679 39.5151L69.468 39.5153L83.5607 69.5811L74.5362 73.8122L60.4436 43.7467C60.4436 43.7466 60.4436 43.7466 60.4436 43.7465C59.2759 41.254 60.3488 38.286 62.84 37.1187L62.8409 37.1183C65.3319 35.9481 68.3001 37.0228 69.4679 39.5151ZM74.5686 78.9281L87.43 72.8993H87.4447L87.6463 72.8049L87.9699 72.6533L88.6764 74.1583L84.899 75.922L84.8977 75.9227L78.6019 78.8735L78.5446 78.8989L78.5355 78.903L78.5264 78.9072L74.7858 80.6602L74.0804 79.1608L74.4019 79.0102L74.5612 78.9356L74.5686 78.9281ZM61.5847 32.6064C61.0995 32.788 60.6295 33.0082 60.1796 33.2651L59.6644 32.1655C59.645 32.1183 59.6162 32.0495 59.5793 31.9741C59.4565 31.6278 59.592 31.2386 59.9071 31.0418C59.9539 31.0219 60.0003 31.0003 60.046 30.9769C60.421 30.8525 60.8356 31.0234 61.0115 31.3825L61.5847 32.6064ZM93.5056 85.9643L94.2127 87.4728L81.4757 93.4435L80.7713 91.9408L83.967 90.4465L83.9677 90.4462L90.3058 87.4764L90.8618 87.2158L90.8623 87.2014L93.5056 85.9643ZM15.485 90.4405V72.714H36.9307C38.2172 72.714 39.2588 71.6723 39.2588 70.3859V55.2559C39.2588 53.9694 38.2171 52.9278 36.9307 52.9278L15.9868 52.9283C16.5508 51.7017 17.5355 50.8098 18.6699 49.8082L18.6714 49.8068L18.7344 49.751C20.0772 48.561 21.5692 47.2387 22.4174 45.2035H40.8691C41.7136 47.2349 43.2048 48.5563 44.5441 49.7431C44.5681 49.7644 44.5921 49.7856 44.616 49.8068L44.6173 49.808C46.3564 51.3441 47.8026 52.6609 47.8026 55.3893L47.8025 90.4405L47.8027 90.4513C47.8186 91.9295 47.3065 93.3696 46.36 94.5036L46.3532 94.5118C45.6035 95.4297 44.4886 95.9737 43.3062 96H19.9814C18.7957 95.9737 17.6844 95.43 16.9344 94.5118L16.9344 94.5117L16.9265 94.5022C15.9772 93.3689 15.4658 91.9301 15.4849 90.4535H15.485V90.4405ZM84.0984 85.244L82.6307 82.112L84.7638 81.1124L86.2317 84.2422L84.0984 85.244ZM34.6017 57.585V68.0583H15.4849V57.585H34.6017Z" stroke="white" stroke-width="2"/>
</svg>
