<svg width="303" height="98" viewBox="0 0 303 98" fill="none" xmlns="http://www.w3.org/2000/svg">
<path d="M74.6669 52.7147C71.5881 52.7147 68.8668 51.9633 66.5027 50.4606C64.157 48.9579 62.3153 46.9421 60.9775 44.4131C59.6581 41.8659 58.9983 39.0437 58.9983 35.9466V13.5159H67.2449V35.9466C67.2449 37.5043 67.5381 38.9337 68.1246 40.2349C68.711 41.5177 69.554 42.5439 70.6535 43.3136C71.7714 44.0833 73.1092 44.4681 74.6669 44.4681C76.2429 44.4681 77.5807 44.0924 78.6802 43.3411C79.7798 42.5714 80.6136 41.5452 81.1817 40.2624C81.7498 38.9612 82.0338 37.5227 82.0338 35.9466V13.5159H90.2804V35.9466C90.2804 38.274 89.9047 40.4548 89.1534 42.4889C88.402 44.5048 87.33 46.2824 85.9372 47.8217C84.5444 49.3611 82.8951 50.5614 80.9893 51.4227C79.0834 52.284 76.9759 52.7147 74.6669 52.7147ZM100.495 52V13.5159H109.402L123.476 37.1012V13.5159H131.723V52H122.816L108.742 28.4148V52H100.495ZM142.744 52V13.5159H155.499C158.156 13.5159 160.639 14.0199 162.948 15.0278C165.276 16.0174 167.319 17.401 169.078 19.1786C170.856 20.9378 172.239 22.9812 173.229 25.3085C174.237 27.6176 174.741 30.1007 174.741 32.758C174.741 35.4152 174.237 37.9075 173.229 40.2349C172.239 42.5439 170.856 44.5872 169.078 46.3648C167.319 48.1241 165.276 49.5077 162.948 50.5156C160.639 51.5052 158.156 52 155.499 52H142.744ZM150.991 43.7534H155.499C156.983 43.7534 158.385 43.4694 159.705 42.9013C161.024 42.3332 162.197 41.5452 163.223 40.5372C164.249 39.5293 165.047 38.3656 165.615 37.0462C166.201 35.7084 166.494 34.279 166.494 32.758C166.494 31.2369 166.201 29.8167 165.615 28.4972C165.047 27.1778 164.249 26.0141 163.223 25.0062C162.215 23.9799 161.052 23.1827 159.732 22.6146C158.413 22.0466 157.002 21.7625 155.499 21.7625H150.991V43.7534ZM193.67 13.5159H202.961L216.925 52H208.184L205.985 45.9525H190.646L188.447 52H179.706L193.67 13.5159ZM193.67 37.7059H202.961L198.288 24.9512L193.67 37.7059ZM225.685 52V13.5159H238.439C241.097 13.5159 243.58 14.0199 245.889 15.0278C248.216 16.0174 250.26 17.401 252.019 19.1786C253.796 20.9378 255.18 22.9812 256.17 25.3085C257.178 27.6176 257.681 30.1007 257.681 32.758C257.681 35.4152 257.178 37.9075 256.17 40.2349C255.18 42.5439 253.796 44.5872 252.019 46.3648C250.26 48.1241 248.216 49.5077 245.889 50.5156C243.58 51.5052 241.097 52 238.439 52H225.685ZM233.931 43.7534H238.439C239.924 43.7534 241.326 43.4694 242.645 42.9013C243.965 42.3332 245.137 41.5452 246.164 40.5372C247.19 39.5293 247.987 38.3656 248.555 37.0462C249.142 35.7084 249.435 34.279 249.435 32.758C249.435 31.2369 249.142 29.8167 248.555 28.4972C247.987 27.1778 247.19 26.0141 246.164 25.0062C245.156 23.9799 243.992 23.1827 242.673 22.6146C241.353 22.0466 239.942 21.7625 238.439 21.7625H233.931V43.7534ZM276.61 13.5159H285.902L299.866 52H291.124L288.925 45.9525H273.587L271.388 52H262.646L276.61 13.5159ZM276.61 37.7059H285.902L281.228 24.9512L276.61 37.7059Z" fill="#242C56"/>
<path d="M39.7881 53.0478V15.914" stroke="#242C56" stroke-width="10.6096"/>
<path d="M5.30762 53.0478V15.914" stroke="#242C56" stroke-width="10.6096"/>
<path d="M0.000976562 7.957L18.5679 20.0402L45.092 7.957V20.1821L18.5679 31.8287L0.000976562 20.1821V7.957Z" fill="#34A853"/>
<path d="M11.1075 67.448C13.5477 67.448 15.3249 67.9785 16.4389 69.0395C17.5706 70.0827 18.1364 71.5239 18.1364 73.3629C18.1364 74.194 18.0126 74.9897 17.7651 75.7501C17.5175 76.4927 17.102 77.1647 16.5184 77.7659C15.9526 78.3494 15.2011 78.8092 14.2639 79.1451C13.3267 79.4811 12.1685 79.6491 10.7892 79.6491H9.06517V86.3862H5.06002V67.448H11.1075ZM10.8953 70.737H9.06517V76.3601H10.3914C11.1517 76.3601 11.806 76.2629 12.3542 76.0683C12.9023 75.8738 13.3267 75.5644 13.6273 75.14C13.9279 74.7156 14.0782 74.1675 14.0782 73.4955C14.0782 72.5583 13.8218 71.8687 13.309 71.4266C12.7962 70.9669 11.9917 70.737 10.8953 70.737ZM60.3875 76.8906C60.3875 78.3583 60.2018 79.6933 59.8305 80.8957C59.4768 82.0805 58.9287 83.1061 58.186 83.9725C57.461 84.839 56.5238 85.5021 55.3744 85.9618C54.2427 86.4216 52.9077 86.6515 51.3693 86.6515C49.8309 86.6515 48.487 86.4216 47.3376 85.9618C46.2059 85.4844 45.2687 84.8213 44.5261 83.9725C43.8011 83.1061 43.2529 82.0716 42.8816 80.8692C42.5279 79.6668 42.3511 78.3317 42.3511 76.8641C42.3511 74.9013 42.6694 73.1949 43.3059 71.7449C43.9602 70.2949 44.9504 69.1721 46.2766 68.3763C47.6205 67.5629 49.3269 67.1562 51.3958 67.1562C53.447 67.1562 55.1357 67.5629 56.4619 68.3763C57.7881 69.1721 58.7695 70.3038 59.4061 71.7714C60.0603 73.2214 60.3875 74.9278 60.3875 76.8906ZM46.5684 76.8906C46.5684 78.2168 46.7364 79.3573 47.0724 80.3122C47.4083 81.2671 47.93 82.0009 48.6373 82.5137C49.3446 83.0265 50.2553 83.2829 51.3693 83.2829C52.5187 83.2829 53.4382 83.0265 54.1278 82.5137C54.8351 82.0009 55.3479 81.2671 55.6662 80.3122C56.0022 79.3573 56.1701 78.2168 56.1701 76.8906C56.1701 74.8924 55.7988 73.3275 55.0561 72.1958C54.3135 71.0641 53.0933 70.4983 51.3958 70.4983C50.2641 70.4983 49.3446 70.7547 48.6373 71.2675C47.93 71.7803 47.4083 72.5141 47.0724 73.469C46.7364 74.4238 46.5684 75.5644 46.5684 76.8906ZM85.7949 86.3862V67.448H89.8V83.0707H97.492V86.3862H85.7949ZM127.362 75.2461L131.314 67.448H135.638L129.352 79.0125V86.3862H125.373V79.1451L119.087 67.448H123.437L127.362 75.2461ZM167.52 86.3862L162.958 71.5327H162.852C162.87 71.8864 162.896 72.4169 162.932 73.1242C162.967 73.8315 163.003 74.5918 163.038 75.4052C163.073 76.201 163.091 76.926 163.091 77.5802V86.3862H159.51V67.448H164.974L169.457 81.9302H169.536L174.284 67.448H179.748V86.3862H176.008V77.4211C176.008 76.8199 176.017 76.1302 176.035 75.3522C176.07 74.5742 176.097 73.8403 176.114 73.1507C176.15 72.4434 176.176 71.9129 176.194 71.5592H176.088L171.207 86.3862H167.52ZM216.918 86.3862H206.017V67.448H216.918V70.737H210.022V74.9013H216.441V78.1903H210.022V83.0707H216.918V86.3862ZM247.86 67.448C249.575 67.448 250.99 67.6602 252.104 68.0846C253.218 68.4913 254.049 69.119 254.597 69.9678C255.145 70.7989 255.42 71.851 255.42 73.1242C255.42 73.9906 255.252 74.751 254.916 75.4052C254.597 76.0418 254.164 76.59 253.616 77.0497C253.085 77.4918 252.511 77.8543 251.892 78.1372L257.462 86.3862H253.006L248.497 79.1186H246.348V86.3862H242.343V67.448H247.86ZM247.568 70.737H246.348V75.8562H247.648C248.532 75.8562 249.248 75.7589 249.796 75.5644C250.345 75.3699 250.742 75.0781 250.99 74.6891C251.238 74.2824 251.361 73.7961 251.361 73.2303C251.361 72.6291 251.22 72.1516 250.937 71.798C250.672 71.4266 250.256 71.1614 249.69 71.0022C249.142 70.8254 248.435 70.737 247.568 70.737ZM292.504 81.1345C292.504 82.2485 292.23 83.221 291.682 84.0521C291.134 84.8832 290.338 85.5286 289.295 85.9884C288.269 86.4304 287.014 86.6515 285.529 86.6515C284.874 86.6515 284.229 86.6073 283.592 86.5189C282.973 86.4304 282.372 86.3067 281.789 86.1475C281.223 85.9707 280.684 85.7585 280.171 85.5109V81.771C281.073 82.1601 282.001 82.5225 282.956 82.8585C283.928 83.1768 284.892 83.336 285.847 83.336C286.501 83.336 287.023 83.2475 287.412 83.0707C287.819 82.8939 288.11 82.6552 288.287 82.3546C288.482 82.054 288.579 81.7091 288.579 81.3201C288.579 80.8427 288.411 80.436 288.075 80.1C287.757 79.764 287.323 79.4546 286.775 79.1717C286.227 78.8711 285.599 78.5528 284.892 78.2168C284.45 78.0046 283.973 77.757 283.46 77.4741C282.947 77.1735 282.452 76.811 281.974 76.3866C281.515 75.9446 281.134 75.4141 280.834 74.7952C280.533 74.1763 280.383 73.4336 280.383 72.5672C280.383 71.4355 280.639 70.4718 281.152 69.676C281.683 68.8626 282.425 68.2437 283.38 67.8193C284.353 67.395 285.493 67.1828 286.802 67.1828C287.792 67.1828 288.729 67.2977 289.613 67.5276C290.515 67.7575 291.452 68.0846 292.425 68.509L291.125 71.6388C290.259 71.2852 289.481 71.0111 288.791 70.8166C288.101 70.6221 287.394 70.5248 286.669 70.5248C286.174 70.5248 285.75 70.6044 285.396 70.7635C285.042 70.9227 284.768 71.1437 284.574 71.4266C284.397 71.7095 284.308 72.0455 284.308 72.4345C284.308 72.8766 284.441 73.2568 284.706 73.5751C284.972 73.8757 285.369 74.1675 285.9 74.4504C286.43 74.7333 287.094 75.0693 287.889 75.4583C288.862 75.918 289.684 76.3955 290.356 76.8906C291.046 77.3857 291.576 77.9692 291.947 78.6412C292.319 79.3131 292.504 80.1442 292.504 81.1345Z" fill="#666666"/>
</svg>
