<svg width="110" height="110" viewBox="0 0 110 110" fill="none" xmlns="http://www.w3.org/2000/svg">
<path d="M41.516 18.5781H14.297C11.7501 18.5781 9.68762 20.6406 9.68762 23.1875V43.0935C9.68762 43.0935 46.7926 43.0857 46.1256 43.0935V23.1875C46.1256 20.6406 44.0629 18.5781 41.516 18.5781Z" fill="white"/>
<path d="M33.484 46.2188V48.7188C33.484 48.7813 33.5465 48.8282 33.609 48.8282H46.125V46.2188L33.484 46.2188Z" fill="white"/>
<path d="M33.609 51.9531C31.8278 51.9531 30.359 50.5001 30.359 48.7188V46.2188H9.68702V82.2027C9.68311 84.8004 11.8667 86.9058 14.4722 86.8121V89.8552C14.5113 91.9021 17.5581 91.9177 17.5972 89.8552V86.8121H38.2142V89.8552C38.2142 90.7184 38.9134 91.4177 39.7767 91.4177C40.64 91.4177 41.3392 90.7184 41.3392 89.8552V86.8121H41.5111C44.058 86.8121 46.1205 84.734 46.1205 82.2027V51.9527C44.0971 51.9606 35.7925 51.9488 33.6045 51.9527L33.609 51.9531Z" fill="white"/>
<path d="M89.391 49.25H57.938C55.8286 49.25 54.1099 50.9531 54.1099 53.0625V59.6719H93.2039V53.0625C93.2039 50.9531 91.5004 49.25 89.391 49.25ZM66.235 56.7969H61.9538C61.0944 56.7969 60.3913 56.0938 60.3913 55.2344C60.3913 54.3594 61.0944 53.6719 61.9538 53.6719H66.235C68.2858 53.6992 68.2897 56.7578 66.235 56.7969ZM78.126 56.7969H75.5166C73.4619 56.7578 73.4619 53.6992 75.5166 53.6719H78.126C80.1807 53.6914 80.1846 56.7657 78.126 56.7969ZM86.0322 56.7969H83.4228C81.3681 56.7578 81.3681 53.6992 83.4228 53.6719H86.0322C88.0869 53.6914 88.0908 56.7657 86.0322 56.7969Z" fill="white"/>
<path d="M54.109 62.7971V87.6091C54.109 89.7029 55.8278 91.4216 57.9371 91.4216H89.3901C91.4995 91.4216 93.2026 89.7028 93.2026 87.6091V62.7971C94.6518 62.7658 54.109 62.7971 54.109 62.7971ZM73.656 66.344C79.2966 66.344 83.89 70.9378 83.89 76.578C83.3705 90.129 63.949 90.14 63.437 76.578C63.437 70.9374 68.0151 66.344 73.656 66.344Z" fill="white"/>
<path d="M73.656 83.6882C83.0505 83.3914 83.0505 69.7622 73.656 69.4692C64.281 69.77 64.2849 83.3872 73.656 83.6882Z" fill="white"/>
<path d="M97.578 18.5781H52.922C51.422 18.5781 50.1876 19.8125 50.1876 21.3125V34.9215H100.313V21.3125C100.313 19.8125 99.0936 18.5781 97.578 18.5781ZM93.8436 32.7811H85.5311C83.4764 32.7499 83.4725 29.6873 85.5311 29.6561H93.8436C95.8944 29.6952 95.8983 32.742 93.8436 32.7811Z" fill="white"/>
<path d="M50.703 38.0469L52.6718 42.75C53.1406 43.8438 54.2187 44.5625 55.453 44.5625H95.062C96.2808 44.5625 97.3589 43.8437 97.8276 42.75L99.7964 38.0469H50.703Z" fill="white"/>
</svg>
