<svg width="110" height="110" viewBox="0 0 110 110" fill="none" xmlns="http://www.w3.org/2000/svg">
<path fill-rule="evenodd" clip-rule="evenodd" d="M57.2271 26.9301L50.2271 11.9921C49.8989 11.2929 50.1997 10.4609 50.9028 10.1327C51.6021 9.80461 52.434 10.1054 52.7622 10.8085L59.8209 25.8635C59.3482 25.883 58.8833 25.9846 58.4419 26.1643C58.3169 26.2346 58.188 26.2932 58.0552 26.344C57.7584 26.5041 57.4771 26.7036 57.2271 26.9301ZM44.4381 31.0863L16.1021 31.0902C15.1216 31.0941 14.3287 31.8871 14.3209 32.8675V39.5081V39.5042C14.3287 40.4847 15.1216 41.2776 16.1021 41.2815H44.4341C45.4145 41.2776 46.2075 40.4846 46.2153 39.5042V32.8675C46.2075 31.8871 45.4145 31.0941 44.4341 31.0902L44.4381 31.0863ZM86.6491 71.4773L71.2781 38.6843C69.7937 35.5163 66.0203 34.1491 62.8523 35.6374C59.6843 37.1218 58.3211 40.8952 59.8054 44.0632L75.1764 76.8562L86.6491 71.4773ZM75.1021 79.9851L89.1021 73.4226H89.1177L90.4185 72.8132L92.0669 76.325L87.106 78.6413L80.4302 81.7702L80.3599 81.8015L75.4419 84.1062L73.7935 80.6023L75.0943 79.9929L75.1021 79.9851ZM63.4501 32.4771L62.3212 30.0669C61.8876 29.1685 60.8329 28.7583 59.9071 29.1255C59.8524 29.1568 59.7938 29.1841 59.7313 29.2076C58.8875 29.6685 58.5204 30.6881 58.8797 31.5787C58.9149 31.6451 58.9422 31.7115 58.9696 31.7779L60.0438 34.0709C61.0555 33.3092 62.2157 32.7662 63.45 32.4732L63.4501 32.4771ZM89.4771 87.0001L87.024 81.7696L82.8482 83.7266L85.3013 88.961L89.4771 87.0001ZM91.9341 88.9415L96.2075 86.9415H96.2114C96.227 86.9337 96.2504 86.9337 96.2661 86.9415C96.2856 86.9493 96.3012 86.9611 96.3129 86.9767L97.8949 90.3517C97.9027 90.3712 97.9027 90.3907 97.8949 90.4103C97.8871 90.4259 97.8754 90.4415 97.8598 90.4532L82.5938 97.6095C82.5742 97.6173 82.5547 97.6173 82.5352 97.6095C82.5157 97.6055 82.5 97.5899 82.4922 97.5743L80.9102 94.1993C80.8985 94.1641 80.9102 94.1212 80.9454 94.1016L85.2227 92.1016L91.9336 88.9571L91.9341 88.9415ZM12.1021 70.4145H34.4611V57.2075H12.1021V70.4145ZM12.2466 54.3945C12.7232 51.9883 14.2974 50.5937 15.8325 49.2383C17.4497 47.8047 19.0317 46.4024 19.7622 44.0977H40.7782C41.5048 46.4024 43.0907 47.8047 44.7079 49.2383C46.5477 50.8633 48.4384 52.5391 48.4384 55.9414V93.0544C48.4579 94.8708 47.829 96.6403 46.665 98.0349C45.6728 99.2497 44.1962 99.9685 42.6298 99.9997H17.9108C16.3405 99.9685 14.8678 99.2497 13.8756 98.0349C12.7076 96.6404 12.0787 94.8708 12.1022 93.0544V73.2264H35.8682C36.6455 73.2264 37.2744 72.5975 37.2744 71.8202V55.8002C37.2744 55.0229 36.6455 54.394 35.8682 54.394L12.2466 54.3945Z" fill="white"/>
</svg>
