<svg width="222" height="71" viewBox="0 0 222 71" fill="none" xmlns="http://www.w3.org/2000/svg">
<path d="M54.6258 38.5229C52.3734 38.5229 50.3825 37.9732 48.6531 36.8738C46.937 35.7745 45.5896 34.2997 44.6109 32.4496C43.6456 30.586 43.163 28.5214 43.163 26.2557V9.84576H49.196V26.2557C49.196 27.3952 49.4105 28.441 49.8396 29.3928C50.2686 30.3313 50.8853 31.0821 51.6897 31.6452C52.5075 32.2083 53.4862 32.4898 54.6258 32.4898C55.7788 32.4898 56.7575 32.215 57.5619 31.6653C58.3663 31.1022 58.9763 30.3514 59.3919 29.413C59.8075 28.4611 60.0153 27.4086 60.0153 26.2557V9.84576H66.0483V26.2557C66.0483 27.9583 65.7735 29.5537 65.2238 31.0419C64.6742 32.5166 63.8899 33.8171 62.8709 34.9433C61.852 36.0694 60.6454 36.9476 59.2511 37.5777C57.8568 38.2078 56.315 38.5229 54.6258 38.5229ZM73.5215 38V9.84576H80.0372L90.3336 27.1003V9.84576H96.3666V38H89.8509L79.5545 20.7455V38H73.5215ZM104.43 38V9.84576H113.761C115.705 9.84576 117.522 10.2144 119.211 10.9518C120.913 11.6758 122.408 12.688 123.695 13.9885C124.996 15.2755 126.008 16.7704 126.732 18.473C127.469 20.1623 127.838 21.9789 127.838 23.9229C127.838 25.8669 127.469 27.6902 126.732 29.3928C126.008 31.0821 124.996 32.577 123.695 33.8774C122.408 35.1645 120.913 36.1767 119.211 36.914C117.522 37.638 115.705 38 113.761 38H104.43ZM110.463 31.9669H113.761C114.847 31.9669 115.873 31.7591 116.838 31.3435C117.803 30.9279 118.661 30.3514 119.412 29.6141C120.163 28.8767 120.746 28.0254 121.162 27.0601C121.591 26.0814 121.805 25.0356 121.805 23.9229C121.805 22.8101 121.591 21.7711 121.162 20.8058C120.746 19.8405 120.163 18.9892 119.412 18.2518C118.675 17.501 117.823 16.9178 116.858 16.5022C115.893 16.0866 114.86 15.8788 113.761 15.8788H110.463V31.9669ZM141.686 9.84576H148.483L158.699 38H152.304L150.696 33.5758H139.474L137.865 38H131.47L141.686 9.84576ZM141.686 27.5427H148.483L145.065 18.2116L141.686 27.5427ZM165.108 38V9.84576H174.439C176.383 9.84576 178.199 10.2144 179.889 10.9518C181.591 11.6758 183.086 12.688 184.373 13.9885C185.674 15.2755 186.686 16.7704 187.41 18.473C188.147 20.1623 188.516 21.9789 188.516 23.9229C188.516 25.8669 188.147 27.6902 187.41 29.3928C186.686 31.0821 185.674 32.577 184.373 33.8774C183.086 35.1645 181.591 36.1767 179.889 36.914C178.199 37.638 176.383 38 174.439 38H165.108ZM171.141 31.9669H174.439C175.525 31.9669 176.55 31.7591 177.516 31.3435C178.481 30.9279 179.339 30.3514 180.09 29.6141C180.84 28.8767 181.424 28.0254 181.839 27.0601C182.268 26.0814 182.483 25.0356 182.483 23.9229C182.483 22.8101 182.268 21.7711 181.839 20.8058C181.424 19.8405 180.84 18.9892 180.09 18.2518C179.352 17.501 178.501 16.9178 177.536 16.5022C176.57 16.0866 175.538 15.8788 174.439 15.8788H171.141V31.9669ZM202.364 9.84576H209.161L219.377 38H212.982L211.373 33.5758H200.152L198.543 38H192.148L202.364 9.84576ZM202.364 27.5427H209.161L205.742 18.2116L202.364 27.5427Z" fill="#242C56"/>
<path d="M29.1069 38.8091V11.6427" stroke="#242C56" stroke-width="7.76182"/>
<path d="M3.88086 38.8091V11.6427" stroke="#242C56" stroke-width="7.76182"/>
<path d="M0 5.82137L13.5832 14.6612L32.9877 5.82137V14.765L13.5832 23.2855L0 14.765V5.82137Z" fill="#34A853"/>
<path d="M8.12548 48.8594C9.9107 48.8594 11.2108 49.2475 12.0258 50.0237C12.8537 50.787 13.2677 51.8413 13.2677 53.1867C13.2677 53.7947 13.1771 54.3768 12.996 54.9331C12.8149 55.4764 12.5109 55.968 12.084 56.4078C11.67 56.8347 11.1203 57.1711 10.4346 57.4168C9.749 57.6626 8.90166 57.7855 7.89263 57.7855H6.63133V62.7143H3.70124V48.8594H8.12548ZM7.97024 51.2656H6.63133V55.3794H7.60156C8.15782 55.3794 8.63647 55.3082 9.0375 55.1659C9.43852 55.0236 9.749 54.7972 9.96891 54.4868C10.1888 54.1763 10.2988 53.7753 10.2988 53.2837C10.2988 52.598 10.1112 52.0935 9.73606 51.7701C9.3609 51.4338 8.7723 51.2656 7.97024 51.2656ZM44.1778 55.7675C44.1778 56.8412 44.0419 57.8179 43.7703 58.6975C43.5115 59.5643 43.1105 60.3146 42.5672 60.9485C42.0368 61.5824 41.3512 62.0675 40.5103 62.4038C39.6824 62.7402 38.7057 62.9083 37.5802 62.9083C36.4548 62.9083 35.4716 62.7402 34.6307 62.4038C33.8028 62.0545 33.1172 61.5694 32.5738 60.9485C32.0435 60.3146 31.6424 59.5578 31.3708 58.6781C31.112 57.7985 30.9827 56.8218 30.9827 55.7481C30.9827 54.3121 31.2155 53.0638 31.6812 52.003C32.1599 50.9422 32.8843 50.1207 33.8545 49.5386C34.8377 48.9435 36.0861 48.646 37.5996 48.646C39.1002 48.646 40.3357 48.9435 41.3059 49.5386C42.2761 50.1207 42.9941 50.9487 43.4598 52.0224C43.9384 53.0832 44.1778 54.3315 44.1778 55.7675ZM34.068 55.7675C34.068 56.7377 34.1909 57.5721 34.4367 58.2706C34.6825 58.9692 35.0641 59.5061 35.5816 59.8812C36.099 60.2564 36.7652 60.444 37.5802 60.444C38.4211 60.444 39.0938 60.2564 39.5983 59.8812C40.1158 59.5061 40.4909 58.9692 40.7238 58.2706C40.9696 57.5721 41.0924 56.7377 41.0924 55.7675C41.0924 54.3056 40.8208 53.1608 40.2775 52.3329C39.7341 51.5049 38.8415 51.091 37.5996 51.091C36.7717 51.091 36.099 51.2785 35.5816 51.6537C35.0641 52.0288 34.6825 52.5657 34.4367 53.2643C34.1909 53.9628 34.068 54.7972 34.068 55.7675ZM62.7654 62.7143V48.8594H65.6954V60.2887H71.3228V62.7143H62.7654ZM93.1753 54.5644L96.0666 48.8594H99.2295L94.6307 57.3198V62.7143H91.72V57.4168L87.1211 48.8594H90.3034L93.1753 54.5644ZM122.554 62.7143L119.217 51.8477H119.139C119.152 52.1065 119.171 52.4946 119.197 53.012C119.223 53.5295 119.249 54.0857 119.275 54.6808C119.301 55.2629 119.314 55.7933 119.314 56.272V62.7143H116.694V48.8594H120.691L123.971 59.4543H124.029L127.502 48.8594H131.5V62.7143H128.764V56.1555C128.764 55.7157 128.77 55.2112 128.783 54.642C128.809 54.0728 128.828 53.5359 128.841 53.0314C128.867 52.514 128.887 52.1259 128.9 51.8671H128.822L125.252 62.7143H122.554ZM158.693 62.7143H150.717V48.8594H158.693V51.2656H153.647V54.3121H158.343V56.7183H153.647V60.2887H158.693V62.7143ZM181.329 48.8594C182.584 48.8594 183.619 49.0147 184.434 49.3251C185.249 49.6227 185.857 50.0819 186.258 50.7029C186.659 51.3109 186.86 52.0806 186.86 53.012C186.86 53.6459 186.737 54.2022 186.491 54.6808C186.258 55.1465 185.941 55.5475 185.54 55.8839C185.152 56.2073 184.732 56.4725 184.279 56.6795L188.354 62.7143H185.094L181.795 57.3974H180.223V62.7143H177.293V48.8594H181.329ZM181.116 51.2656H180.223V55.0107H181.174C181.821 55.0107 182.345 54.9395 182.746 54.7972C183.147 54.6549 183.438 54.4415 183.619 54.1569C183.8 53.8593 183.891 53.5036 183.891 53.0896C183.891 52.6498 183.787 52.3005 183.58 52.0418C183.386 51.7701 183.082 51.5761 182.668 51.4596C182.267 51.3303 181.75 51.2656 181.116 51.2656ZM213.99 58.8722C213.99 59.6872 213.79 60.3987 213.389 61.0067C212.988 61.6147 212.405 62.0869 211.642 62.4232C210.892 62.7466 209.973 62.9083 208.887 62.9083C208.408 62.9083 207.936 62.876 207.47 62.8113C207.017 62.7466 206.578 62.6561 206.151 62.5396C205.737 62.4103 205.342 62.255 204.967 62.0739V59.3379C205.627 59.6225 206.306 59.8877 207.005 60.1335C207.716 60.3663 208.421 60.4828 209.12 60.4828C209.598 60.4828 209.98 60.4181 210.264 60.2887C210.562 60.1594 210.775 59.9847 210.905 59.7648C211.047 59.5449 211.118 59.2926 211.118 59.008C211.118 58.6587 210.995 58.3612 210.75 58.1154C210.517 57.8696 210.2 57.6432 209.799 57.4362C209.398 57.2163 208.939 56.9835 208.421 56.7377C208.098 56.5824 207.748 56.4013 207.373 56.1944C206.998 55.9744 206.636 55.7092 206.287 55.3988C205.95 55.0754 205.672 54.6873 205.452 54.2345C205.232 53.7817 205.122 53.2384 205.122 52.6045C205.122 51.7766 205.31 51.0716 205.685 50.4894C206.073 49.8943 206.616 49.4416 207.315 49.1311C208.027 48.8206 208.861 48.6654 209.818 48.6654C210.543 48.6654 211.228 48.7495 211.875 48.9177C212.535 49.0858 213.22 49.3251 213.932 49.6356L212.981 51.9254C212.347 51.6666 211.778 51.4661 211.274 51.3238C210.769 51.1815 210.252 51.1104 209.721 51.1104C209.359 51.1104 209.048 51.1686 208.79 51.285C208.531 51.4014 208.331 51.5631 208.188 51.7701C208.059 51.9771 207.994 52.2229 207.994 52.5075C207.994 52.8309 208.091 53.109 208.285 53.3419C208.479 53.5618 208.77 53.7753 209.158 53.9822C209.547 54.1892 210.032 54.435 210.614 54.7196C211.325 55.056 211.927 55.4052 212.418 55.7675C212.923 56.1297 213.311 56.5566 213.583 57.0482C213.854 57.5397 213.99 58.1477 213.99 58.8722Z" fill="#666666"/>
</svg>
