<svg width="104" height="92" viewBox="0 0 104 92" fill="none" xmlns="http://www.w3.org/2000/svg">
<path fill-rule="evenodd" clip-rule="evenodd" d="M81.5885 17.1902L72.2763 24.4777H66.7167L79.8686 14.1847V13.0343C77.2343 12.2723 75.4113 9.85233 75.4113 7.10004C75.4113 3.68889 78.1773 0.922852 81.5885 0.922852C84.9996 0.922852 87.7657 3.68889 87.7657 7.10004C87.7657 8.04993 86.9957 8.81994 86.0458 8.81994C85.0959 8.81994 84.3259 8.04993 84.3259 7.10004C84.3259 5.58754 83.101 4.36264 81.5885 4.36264C80.076 4.36264 78.8511 5.58754 78.8511 7.10004C78.8511 8.61254 80.076 9.83744 81.5885 9.83744C82.5384 9.83744 83.3084 10.6074 83.3084 11.5573V14.1847L96.4602 24.4777H90.9007L81.5885 17.1902ZM52.9449 45.1005L61.0746 53.2301C61.4665 53.622 62.0852 53.653 62.5138 53.3023L71.5601 45.914C72.0792 45.49 72.0884 44.7006 71.5785 44.2651L47.9732 24.079C40.1231 27.1029 32.5479 27.1029 24.699 24.079L1.09368 44.2651C0.584926 44.7006 0.594093 45.49 1.11201 45.914L10.1584 53.3023C10.5869 53.653 11.2057 53.622 11.5975 53.2301L19.7272 45.1005V79.2532C19.7272 79.8444 20.2096 80.328 20.802 80.328H51.8701C52.4625 80.328 52.9449 79.8456 52.9449 79.2532V45.1005ZM36.3361 17.1902L30.0053 22.1448C28.6888 21.8297 27.3653 21.4172 26.0282 20.9062L34.6162 14.1859V13.0355C31.9819 12.2735 30.1589 9.85348 30.1589 7.10119C30.1589 3.69004 32.9249 0.923998 36.3361 0.923998C39.7472 0.923998 42.5133 3.69004 42.5133 7.10119C42.5133 8.05108 41.7433 8.82108 40.7934 8.82108C39.8435 8.82108 39.0735 8.05108 39.0735 7.10119C39.0735 5.58869 37.8474 4.36379 36.3361 4.36379C34.8247 4.36379 33.5987 5.58983 33.5987 7.10119C33.5987 8.61369 34.8247 9.83858 36.3361 9.83858C37.286 9.83858 38.056 10.6086 38.056 11.5585V14.1859L46.644 20.9062C45.3079 21.4161 43.9834 21.8297 42.6668 22.1448L36.3361 17.1902ZM103.283 91.0747H90.5707L82.8248 48.2824C82.5132 46.9922 80.6661 46.9922 80.3533 48.2824L72.6074 91.0747H59.8956L62.7132 56.8968C63.4178 56.757 64.0985 56.4488 64.6886 55.9664L73.7349 48.5781C75.9028 46.8078 75.9407 43.4711 73.8129 41.6526L64.6187 33.7899L65.1034 27.9175H98.0747L103.283 91.0747Z" fill="white"/>
</svg>
